<?xml version="1.0" encoding="utf-8"?>
<!-- Generator: Adobe Illustrator 25.0.1, SVG Export Plug-In . SVG Version: 6.00 Build 0)  -->
<svg version="1.1" id="Layer_1" xmlns="http://www.w3.org/2000/svg" xmlns:xlink="http://www.w3.org/1999/xlink" x="0px" y="0px"
	 viewBox="0 0 1080 1080" style="enable-background:new 0 0 1080 1080;" xml:space="preserve">
<style type="text/css">
	.st0{fill:#00B3DC;}
	.st1{fill:#F2F2F2;}
</style>
<g>
	<g>
		<circle class="st0" cx="540" cy="540" r="63"/>
	</g>
	<g>
		<path class="st1" d="M542.12,518.66c0.25-2.57,1.47-4.32,3.95-5.04c1.37-0.4,2.71-0.23,3.95,0.49c0.38,0.22,0.63,0.25,1-0.03
			c1.44-1.09,3.07-1.51,4.86-1.34c0.76,0.07,1.53,0.16,2.29,0.13c1.47-0.05,2.62-0.83,3.67-1.78c0.66-0.59,1.27-1.24,1.9-1.86
			c2.02-1.97,5.09-1.99,7.04-0.04c1.95,1.95,1.92,5.03-0.05,7.04c-0.75,0.77-1.51,1.54-2.22,2.35c-1.1,1.27-1.61,2.74-1.36,4.45
			c0.32,2.21,0.08,4.3-1.37,6.13c-0.1,0.12-0.11,0.43-0.03,0.55c2.04,3.09,0.16,7.88-4.32,8.12c-0.02,0-0.04,0.02-0.11,0.06
			c0.36,1.54,0.34,3.1-0.14,4.64c-0.44,1.4-1.22,2.59-2.26,3.62c-7.8,7.79-15.58,15.6-23.39,23.38c-3.44,3.43-8.41,3.64-11.92,0.27
			c-4.64-4.44-9.17-9-13.62-13.63c-3.06-3.18-2.96-8.14,0.06-11.34c2.09-2.21,4.28-4.33,6.43-6.48c5.69-5.7,11.4-11.37,17.07-17.09
			C535.96,518.89,538.74,517.94,542.12,518.66z M558.04,542.98c1.44-2.37,1.04-5.15-1.04-7.24c-2.97-3-5.96-5.97-8.95-8.95
			c-1.41-1.41-2.8-2.83-4.24-4.2c-2.14-2.03-5.44-1.73-6.8-0.55c0.64,0.62,1.3,1.22,1.92,1.84c1.89,1.88,2.18,2.55,1.43,3.31
			c-0.78,0.79-1.4,0.54-3.31-1.38c-0.69-0.69-1.37-1.39-2.07-2.1c-0.21,0.2-0.36,0.33-0.49,0.46c-7.37,7.37-14.75,14.75-22.12,22.12
			c-2.55,2.55-2.54,6,0.01,8.55c3.35,3.36,6.71,6.71,10.07,10.07c0.98,0.98,1.95,1.98,2.95,2.95c1.92,1.84,4.92,2.17,6.93,0.76
			c-0.17-0.18-0.33-0.35-0.49-0.52c-1.68-1.68-3.36-3.36-5.03-5.03c-0.12-0.12-0.24-0.23-0.36-0.36c-0.59-0.64-0.6-1.45-0.03-1.98
			c0.55-0.52,1.32-0.49,1.92,0.1c1.84,1.82,3.67,3.65,5.49,5.5c0.18,0.18,0.26,0.46,0.32,0.59c1.53-1.52,2.84-2.83,4.18-4.17
			c-0.12-0.12-0.28-0.3-0.44-0.47c-1.56-1.56-3.12-3.12-4.67-4.68c-0.68-0.68-0.73-1.45-0.17-2.03c0.57-0.59,1.39-0.54,2.09,0.15
			c1.07,1.06,2.14,2.13,3.2,3.2c0.65,0.66,1.29,1.34,1.9,1.97c1.39-1.4,2.71-2.72,4.05-4.08c-1.6-1.6-3.25-3.24-4.89-4.88
			c-0.2-0.2-0.41-0.41-0.57-0.65c-0.38-0.58-0.3-1.22,0.2-1.69c0.49-0.46,1.15-0.51,1.7-0.1c0.23,0.17,0.43,0.38,0.63,0.59
			c1.63,1.62,3.25,3.25,4.84,4.84c1.36-1.35,2.68-2.67,4.04-4.02c-0.12-0.13-0.28-0.3-0.45-0.47c-1.51-1.51-3.02-3.02-4.52-4.53
			c-0.84-0.85-0.95-1.61-0.32-2.23c0.63-0.62,1.36-0.5,2.23,0.37c1.53,1.53,3.05,3.05,4.58,4.58c0.15,0.15,0.31,0.27,0.37,0.33
			c1.36-1.36,2.67-2.67,4.02-4.02c-1.61-1.61-3.27-3.26-4.92-4.93c-0.19-0.19-0.38-0.37-0.52-0.59c-0.35-0.53-0.28-1.22,0.16-1.65
			c0.49-0.48,1.06-0.54,1.64-0.2c0.26,0.15,0.48,0.39,0.7,0.61C554.82,539.76,556.41,541.35,558.04,542.98z M561.24,535.31
			c1.12-0.18,2.08-0.82,2.45-1.77c0.42-1.1,0.18-2.07-0.64-2.89c-4.55-4.56-9.11-9.11-13.66-13.66c-1.12-1.12-2.65-1.18-3.72-0.16
			c-1.07,1.02-1.09,2.65,0.03,3.78c4.56,4.59,9.12,9.16,13.73,13.7C559.89,534.79,560.62,534.99,561.24,535.31z M563.75,527.37
			c0.82-1,0.98-2.22,0.78-3.52c-0.42-2.72,0.26-5.13,2.1-7.18c0.72-0.8,1.51-1.54,2.23-2.33c0.9-0.99,0.88-2.36-0.01-3.23
			c-0.86-0.85-2.2-0.85-3.18,0.02c-0.45,0.4-0.87,0.83-1.28,1.26c-2.34,2.49-5.14,3.65-8.6,3.06c-1.18-0.2-2.28,0.08-3.19,0.81
			C556.34,519.95,560.04,523.66,563.75,527.37z"/>
		<path class="st1" d="M524.6,557.64c0.78,0,1.36,0.59,1.35,1.36c-0.01,0.73-0.61,1.32-1.33,1.32c-0.75,0-1.37-0.63-1.36-1.38
			C523.28,558.2,523.85,557.64,524.6,557.64z"/>
	</g>
</g>
</svg>
