<?xml version="1.0" encoding="utf-8"?>
<!-- Generator: Adobe Illustrator 25.0.1, SVG Export Plug-In . SVG Version: 6.00 Build 0)  -->
<svg version="1.1" id="Layer_1" xmlns="http://www.w3.org/2000/svg" xmlns:xlink="http://www.w3.org/1999/xlink" x="0px" y="0px"
	 viewBox="0 0 1080 1080" style="enable-background:new 0 0 1080 1080;" xml:space="preserve">
<style type="text/css">
	.st0{fill:#F384AC;}
	.st1{fill:#F2F2F2;}
</style>
<g>
	<g>
		<circle class="st0" cx="540" cy="540" r="63"/>
	</g>
	<g>
		<path class="st1" d="M576.95,537.23c-0.23-1.6-0.46-3.21-0.69-4.81c-1.72-12.14-12.29-21.32-24.59-21.33c-2.63,0-5.25,0-7.88,0
			l-2.42,0v0.2h-1.22c-1.54,0-3.11-0.03-4.62-0.06c-3.29-0.07-6.69-0.14-9.97,0.13c-10.18,0.84-19.34,8.94-21.32,18.86
			c-1.63,8.17-2.61,16.5-3.28,22.86c-0.62,5.89,2.92,10.93,8.8,12.55c6.07,1.67,11.6-0.72,14.44-6.23c1.66-3.23,3.25-6.45,4.45-8.89
			c0.52-1.06,1.31-1.56,2.48-1.56c0.01,0,0.02,0,0.02,0c6.01,0.03,11.96,0.03,17.68,0c0.01,0,0.02,0,0.03,0
			c1.52,0,2.14,0.9,2.47,1.57c1.3,2.64,2.84,5.76,4.4,8.8c2.74,5.33,7.84,7.76,13.67,6.51c6.35-1.37,10.3-6.7,9.62-12.97
			C578.46,547.63,577.69,542.35,576.95,537.23z M573.78,559.52c-1.85,2.15-4.67,3.38-7.72,3.38l-0.03,0
			c-3.12-0.08-5.69-1.85-7.24-4.97c-0.52-1.05-1.06-2.1-1.59-3.15c-1.17-2.31-2.38-4.7-3.49-7.1c-0.73-1.58-1.61-2.12-3.34-2.1
			c-7.14,0.11-14.4,0.07-21.22,0.02c-1.22-0.01-1.86,0.37-2.38,1.45c-1.12,2.3-2.29,4.63-3.42,6.87c-0.64,1.27-1.28,2.53-1.91,3.8
			c-1.7,3.42-4.46,5.24-7.86,5.24c-0.48,0-0.98-0.04-1.49-0.11c-4.11-0.6-7.14-3.59-7.73-7.6c-0.18-1.25,0-2.48,0.17-3.67
			c0.03-0.21,0.06-0.42,0.09-0.63c0.24-1.76,0.46-3.53,0.69-5.29c0.59-4.59,1.19-9.35,2.04-13.99c1.83-10.01,10.7-17.27,21.08-17.28
			l3.25,0c6.5,0,12.99-0.01,19.49,0c10.93,0.01,19.5,7.22,21.34,17.93c1.08,6.32,2.03,12.76,2.94,18.99l0.27,1.84
			C576.04,555.44,575.36,557.69,573.78,559.52z"/>
		<path class="st1" d="M531.14,528.36c-0.6-0.01-1.19-0.01-1.81,0l-2.08,0l0-2.16c0-0.62,0-1.19,0-1.76
			c-0.03-1.84-1.24-1.84-1.64-1.85c-0.72,0-1.66,0.19-1.68,1.89c-0.01,0.59,0,1.18,0,1.79l0,2.08h-1.22c-0.34,0-0.66,0-0.97,0
			c-0.64,0-1.23-0.01-1.82,0.01c-1.15,0.02-1.73,0.58-1.74,1.65c-0.01,1.34,0.93,1.65,1.72,1.67c0.61,0.01,1.22,0.01,1.87,0.01
			c0.31,0,0.62,0,0.95,0h1.22l0,2.14c0,0.62,0,1.22,0,1.81c0.03,1.82,1.25,1.82,1.65,1.81c0.7-0.01,1.64-0.2,1.67-1.84
			c0.01-0.59,0.01-1.18,0.01-1.79c0-0.29,0-0.59,0-0.9v-1.22l2.14,0c0.61,0,1.18,0.01,1.74,0c1.69-0.03,1.88-0.99,1.88-1.71
			C533.01,529.29,532.81,528.38,531.14,528.36z"/>
		<g>
			<path class="st1" d="M561.98,528.26c-0.44-0.45-1.05-0.7-1.78-0.71l-0.04,0c-0.72,0-1.34,0.23-1.78,0.67
				c-0.45,0.44-0.69,1.06-0.69,1.79c0,0.73,0.23,1.35,0.67,1.8c0.45,0.45,1.07,0.69,1.82,0.69c0,0,0.01,0,0.01,0
				c1.45,0,2.43-0.97,2.45-2.41C562.65,529.34,562.42,528.71,561.98,528.26z"/>
			<path class="st1" d="M554.48,533.31l-0.08,0c-0.71,0-1.32,0.22-1.76,0.65c-0.45,0.43-0.7,1.04-0.71,1.76
				c-0.01,0.74,0.21,1.37,0.65,1.82c0.44,0.45,1.06,0.7,1.79,0.71c0.01,0,0.02,0,0.04,0c1.44,0,2.42-0.95,2.46-2.36
				c0.02-0.75-0.2-1.4-0.65-1.86C555.8,533.57,555.2,533.32,554.48,533.31z"/>
			<path class="st1" d="M554.36,526.73c0.02,0,0.05,0,0.07,0c0.73-0.01,1.34-0.25,1.78-0.69c0.44-0.45,0.67-1.08,0.67-1.82
				c-0.02-1.46-0.98-2.41-2.47-2.42c-0.73,0-1.34,0.23-1.79,0.67c-0.45,0.44-0.68,1.06-0.68,1.8c0,0.74,0.23,1.36,0.68,1.8
				C552.91,526.37,553.47,526.73,554.36,526.73z"/>
			<path class="st1" d="M548.64,527.55L548.64,527.55c-1.48,0-2.45,0.95-2.47,2.41c-0.01,0.75,0.21,1.38,0.65,1.84
				c0.43,0.45,1.05,0.69,1.75,0.69c0.04,0,0.08,0,0.13,0c0.67,0,1.28-0.24,1.72-0.67c0.45-0.44,0.69-1.06,0.69-1.79
				c0-0.74-0.23-1.36-0.67-1.81C550,527.78,549.38,527.55,548.64,527.55z"/>
		</g>
	</g>
</g>
</svg>
