<?xml version="1.0" encoding="utf-8"?>
<!-- Generator: Adobe Illustrator 25.0.1, SVG Export Plug-In . SVG Version: 6.00 Build 0)  -->
<svg version="1.1" id="Layer_1" xmlns="http://www.w3.org/2000/svg" xmlns:xlink="http://www.w3.org/1999/xlink" x="0px" y="0px"
	 viewBox="0 0 1080 1080" style="enable-background:new 0 0 1080 1080;" xml:space="preserve">
<style type="text/css">
	.st0{fill:#FDB913;}
	.st1{fill:#4D4D4D;}
</style>
<g>
	<g>
		<circle class="st0" cx="540" cy="540" r="63"/>
	</g>
	<g>
		<path class="st1" d="M572.18,533.01c-1.04-0.69-2.24-0.98-3.66-0.87c-1.1,0.09-1.81-0.41-2.12-1.46c-0.2-0.69-0.5-1.36-0.81-2.07
			l-0.12-0.27c-0.76-1.75-0.68-2.17,0.64-3.53c2.19-2.25,2.23-5.54,0.11-7.83c-1.29-1.39-2.46-2.56-3.58-3.57
			c-1.39-1.26-3.04-1.67-5.03-1.25c-1.16,0.24-2.17,0.89-3.2,2.04c-0.66,0.73-1.43,0.88-2.3,0.43c-0.77-0.39-1.58-0.72-2.4-1.05
			c-1.81-0.72-2.06-1.08-2.08-3.02c-0.03-2.83-1.94-5.11-4.55-5.41c-2.38-0.28-4.87-0.14-6.77,0.01c-1.35,0.11-2.54,0.91-3.53,2.39
			c-0.71,1.05-1,2.25-0.89,3.65c0.09,1.12-0.41,1.86-1.49,2.18c-0.7,0.21-1.38,0.51-2.1,0.83l-0.24,0.1
			c-1.7,0.74-2.15,0.66-3.47-0.63c-2.19-2.14-5.48-2.27-7.66-0.32c-1.26,1.13-2.52,2.39-3.84,3.85c-0.93,1.02-1.37,2.33-1.31,3.88
			c0.06,1.61,0.77,2.99,2.16,4.23c0.76,0.68,0.91,1.48,0.44,2.37c-0.37,0.7-0.67,1.45-0.98,2.24l-0.06,0.15
			c-0.71,1.79-1.07,2.03-2.97,2.04c-2.85,0.02-5.15,1.95-5.46,4.59c-0.27,2.28-0.14,4.66,0.02,6.68c0.05,0.62,0.42,1.44,1.05,2.3
			c1.13,1.56,2.74,2.28,4.79,2.15c1.28-0.08,2.08,0.47,2.44,1.68c0.26,0.89,0.63,1.77,1.09,2.62c0.54,1.01,0.39,1.87-0.48,2.64
			c-1.38,1.23-2.05,2.64-2.05,4.32v0.01c-0.01,1.48,0.45,2.73,1.36,3.72c1.02,1.09,2.37,2.51,3.8,3.79c1.37,1.23,3,1.62,4.97,1.2
			c1.16-0.25,2.18-0.89,3.2-2.04c0.41-0.46,0.86-0.69,1.36-0.69c0.3,0,0.62,0.08,0.94,0.26c0.73,0.38,1.52,0.7,2.33,1.03
			c1.87,0.75,2.13,1.13,2.15,3.12c0.03,2.69,2,5.03,4.47,5.32c1.9,0.23,4.05,0.23,6.77,0.02c1.47-0.11,2.72-0.98,3.72-2.58
			c0.61-0.99,0.88-2.04,0.78-3.14c-0.13-1.44,0.5-2.33,1.86-2.64c0.47-0.11,0.94-0.33,1.45-0.56c0.18-0.08,0.35-0.16,0.53-0.24
			c1.7-0.74,2.15-0.66,3.47,0.62c2.26,2.21,5.58,2.26,7.88,0.12c1.06-0.98,2.15-2.08,3.53-3.54c0.82-0.86,1.28-1.95,1.39-3.22
			c0.16-1.94-0.54-3.58-2.14-4.99c-0.77-0.68-0.92-1.48-0.44-2.38c0.36-0.67,0.65-1.39,0.95-2.15l0.07-0.17
			c0.73-1.84,1.1-2.09,3.06-2.12c2.77-0.04,5.07-1.98,5.37-4.51c0.22-1.92,0.22-4.03-0.01-6.84
			C574.49,535.18,573.68,534,572.18,533.01z M572.55,542.34c-0.08,1.96-1.49,3.3-3.51,3.32c-0.45,0.01-0.9,0-1.34,0
			c-0.49,0-0.98,0-1.46,0c-0.65,0.01-1,0.17-1.35,1.05c-0.85,2.16-1.73,4.28-2.63,6.31c-0.34,0.78-0.29,1.12,0.24,1.67
			c0.28,0.28,0.56,0.56,0.84,0.84c0.35,0.35,0.7,0.69,1.04,1.04c1.59,1.64,1.58,3.59-0.02,5.2c-0.95,0.96-1.89,1.91-2.85,2.85
			c-1.53,1.5-3.45,1.54-5.01,0.1c-0.42-0.39-0.83-0.8-1.23-1.21c-0.28-0.28-0.56-0.57-0.84-0.84c-0.45-0.43-0.78-0.56-1.62-0.2
			c-2.25,0.99-4.29,1.84-6.24,2.6c-0.94,0.37-1.11,0.7-1.12,1.45c0,0.44,0,0.88,0,1.32c0,0.47,0,0.95,0,1.42
			c-0.02,2.01-1.38,3.42-3.39,3.53c-0.3,0.01-0.6,0.02-0.91,0.02c-0.24,0-0.47,0-0.71-0.01l-0.69-0.01l-0.59,0
			c-0.51,0-1.03,0.01-1.54-0.01c-2.11-0.07-3.49-1.48-3.5-3.59c0-0.41,0-0.82,0-1.22c0-0.5,0-1,0-1.5
			c-0.01-0.78-0.25-1.11-0.95-1.31c-2.33-0.67-4.54-1.59-6.57-2.74c-0.47-0.27-0.87-0.32-1.45,0.24c-0.31,0.3-0.61,0.61-0.92,0.91
			c-0.36,0.36-0.71,0.72-1.08,1.07c-1.62,1.53-3.54,1.51-5.14-0.07c-0.96-0.94-1.91-1.89-2.85-2.85c-1.53-1.55-1.55-3.5-0.06-5.08
			c0.36-0.38,0.74-0.75,1.11-1.12c0.29-0.29,0.59-0.58,0.88-0.88c0.44-0.46,0.58-0.8,0.22-1.62c-0.95-2.17-1.84-4.29-2.63-6.31
			c-0.32-0.82-0.64-1.06-1.41-1.07c-0.46-0.01-0.92,0-1.38,0c-0.45,0-0.9,0-1.36,0c-2.05-0.02-3.47-1.38-3.54-3.38
			c-0.06-1.56-0.05-3.1,0-4.57c0.08-1.99,1.51-3.34,3.56-3.36c0.43,0,0.86,0,1.29,0c0.48,0,0.96,0,1.44,0
			c0.89-0.01,1.14-0.32,1.32-0.93c0.68-2.35,1.61-4.59,2.77-6.64c0.25-0.44,0.29-0.82-0.24-1.38c-0.31-0.33-0.64-0.64-0.96-0.96
			c-0.34-0.34-0.69-0.68-1.02-1.03c-1.56-1.62-1.54-3.54,0.03-5.14c0.94-0.96,1.89-1.91,2.85-2.85c1.6-1.57,3.52-1.59,5.14-0.03
			c0.37,0.35,0.72,0.71,1.08,1.07c0.29,0.29,0.57,0.58,0.86,0.86c0.49,0.48,0.82,0.58,1.68,0.2c2.04-0.9,4.14-1.77,6.24-2.59
			c0.86-0.33,1.08-0.64,1.09-1.47c0-0.43,0-0.86,0-1.28c0-0.46,0-0.91,0-1.37c0.02-2.05,1.37-3.48,3.36-3.56
			c1.47-0.06,3.01-0.06,4.57,0c2,0.07,3.36,1.49,3.38,3.54c0,0.43,0,0.87,0,1.3c0,0.5,0,1,0,1.51c0.01,0.61,0.17,0.97,1,1.3
			c2.05,0.82,4.16,1.7,6.45,2.69c0.75,0.32,1.1,0.18,1.49-0.19c0.34-0.33,0.68-0.67,1.01-1c0.33-0.33,0.65-0.66,0.98-0.98
			c1.63-1.58,3.58-1.56,5.2,0.05c0.96,0.95,1.91,1.89,2.85,2.85c1.5,1.53,1.52,3.45,0.07,5.01c-0.39,0.42-0.8,0.82-1.21,1.23
			c-0.26,0.26-0.53,0.52-0.79,0.79c-0.5,0.52-0.6,0.84-0.2,1.73c1,2.2,1.82,4.18,2.52,6.04c0.39,1.05,0.66,1.25,1.66,1.25l0.98,0
			c0.53,0,1.07,0,1.6,0c2.01,0.03,3.42,1.37,3.5,3.33C572.61,539.24,572.61,540.81,572.55,542.34z"/>
		<path class="st1" d="M539.8,525.34c-0.03,0-0.06,0-0.09,0c-7.95,0-14.49,6.53-14.6,14.61c-0.05,3.84,1.42,7.49,4.15,10.28
			c2.79,2.84,6.51,4.42,10.48,4.44h0c0.03,0,0.06,0,0.09,0c7.95,0,14.49-6.53,14.6-14.61c0.05-3.84-1.42-7.49-4.16-10.27
			C547.49,526.94,543.77,525.36,539.8,525.34z M548.54,548.8c-2.35,2.34-5.46,3.63-8.76,3.63c-0.01,0-0.02,0-0.04,0
			c-3.32-0.01-6.45-1.32-8.8-3.69c-2.34-2.36-3.62-5.48-3.6-8.79c0.04-6.81,5.61-12.37,12.41-12.38c0.01,0,0.02,0,0.03,0
			c3.3,0,6.42,1.29,8.77,3.64c2.36,2.35,3.66,5.48,3.66,8.8C552.2,543.32,550.9,546.45,548.54,548.8z"/>
	</g>
</g>
</svg>
