<?xml version="1.0" encoding="utf-8"?>
<!-- Generator: Adobe Illustrator 25.0.1, SVG Export Plug-In . SVG Version: 6.00 Build 0)  -->
<svg version="1.1" id="Layer_1" xmlns="http://www.w3.org/2000/svg" xmlns:xlink="http://www.w3.org/1999/xlink" x="0px" y="0px"
	 viewBox="0 0 1080 1080" style="enable-background:new 0 0 1080 1080;" xml:space="preserve">
<style type="text/css">
	.st0{fill:#E82C2A;}
	.st1{fill:#F2F2F2;}
</style>
<g>
	<g>
		<circle class="st0" cx="540" cy="540" r="63"/>
	</g>
	<g>
		<path class="st1" d="M555.57,512.82c0-1.65,0.02-3.06-0.03-4.46c-0.01-0.17-0.36-0.42-0.59-0.49c-1.27-0.37-1.88-1.08-1.91-2.4
			c-0.03-1.17-0.03-2.35,0-3.52c0.04-1.48,0.99-2.42,2.47-2.43c3.77-0.02,7.53-0.02,11.3,0c1.41,0.01,2.4,0.95,2.45,2.37
			c0.05,1.2,0.04,2.41,0,3.61c-0.05,1.56-1.02,2.29-2.53,2.49c0,0.83,0.01,1.61,0,2.39c-0.02,0.96-0.44,1.5-1.18,1.52
			c-0.75,0.02-1.17-0.5-1.19-1.47c0-0.03,0-0.06,0-0.09c-0.03-2.4-0.03-2.4-2.4-2.4c-1.29,0-2.58,0-4,0c0,1.56,0.13,3.01-0.03,4.43
			c-0.23,2.04,0.38,3.55,2.02,4.83c1.32,1.03,2.44,2.32,3.66,3.49c0.18,0.18,0.39,0.34,0.75,0.65c0-1.51,0-2.82,0-4.13
			c-0.01-1.54,0.33-2.14,1.2-2.11c0.84,0.02,1.18,0.63,1.18,2.07c0,1.93-0.03,3.86,0.03,5.78c0.01,0.45,0.23,1,0.54,1.32
			c2.58,2.57,5.2,5.11,7.83,7.64c2,1.93,2.2,4.67,0.48,6.53c-1.71,1.85-4.41,1.89-6.47,0.11c-0.13-0.11-0.27-0.2-0.52-0.38
			c-0.03,0.4-0.06,0.69-0.06,0.97c-0.01,10.63,0,21.27-0.02,31.9c0,0.69,0.13,1.06,0.87,1.28c0.95,0.29,1.41,1.11,1.44,2.09
			c0.04,1.23,0.05,2.47,0,3.7c-0.05,1.47-1.02,2.38-2.51,2.39c-3.1,0.01-6.21,0-9.31,0c-15.61,0-31.21,0-46.82,0
			c-2.24,0-3.04-0.8-3.05-3.05c0-0.9-0.01-1.81,0-2.71c0.02-1.44,0.46-2.12,1.82-2.56c0.61-0.2,0.49-0.6,0.49-1
			c0.01-4.79,0.01-9.58,0-14.37c0-5.9,0-11.81-0.01-17.71c0-0.27,0-0.53,0-0.99c-0.33,0.25-0.54,0.39-0.73,0.55
			c-1.9,1.65-4.59,1.58-6.27-0.18c-1.7-1.78-1.65-4.55,0.18-6.34c5.3-5.18,10.62-10.34,15.93-15.51
			c5.36-5.21,10.71-10.41,16.07-15.62c2.11-2.04,4.62-2.04,6.72,0c3.83,3.71,7.65,7.43,11.47,11.15
			C555.01,512.34,555.19,512.49,555.57,512.82z M540.04,510.25c-0.2,0.16-0.3,0.23-0.39,0.32c-8.42,8.19-16.85,16.37-25.25,24.59
			c-0.31,0.31-0.52,0.88-0.52,1.33c-0.03,8.98-0.03,17.95-0.03,26.93c0,2.59,0.02,5.18-0.01,7.77c-0.01,0.72,0.23,0.97,0.93,0.92
			c0.6-0.05,1.2-0.01,1.81-0.01c1.22,0,1.22,0,1.22-1.23c0-10.21,0-20.42,0-30.63c0-2.02,0.7-2.73,2.7-2.74c1.39,0,2.77,0,4.16,0
			c1.33,0,1.95,0.4,1.93,1.23c-0.02,0.8-0.6,1.14-1.91,1.14c-1.46,0-2.93,0-4.42,0c0,1.19,0,2.25,0,3.38c0.35,0,0.61,0,0.88,0
			c3.61,0,7.23,0,10.84,0c1.14,0,2.29,0.02,3.43-0.02c0.25-0.01,0.68-0.26,0.69-0.43c0.07-0.95,0.03-1.9,0.03-2.94
			c-1.74,0-3.36,0.01-4.98,0c-0.88-0.01-1.47-0.49-1.41-1.18c0.06-0.79,0.57-1.17,1.34-1.18c1.78-0.01,3.56-0.04,5.33,0.01
			c1.23,0.03,1.99,0.81,2.09,2.06c0.04,0.45,0.02,0.9,0.02,1.35c0,10,0,20,0,30c0,1.17,0,1.17,1.18,1.17
			c8.4,0,16.81-0.01,25.21-0.01c1.23,0,1.24,0,1.24-1.22c0-11.39,0-22.77,0.03-34.16c0-0.76-0.23-1.28-0.77-1.8
			c-6.69-6.47-13.35-12.97-20.02-19.46C543.62,513.72,541.85,512.01,540.04,510.25z M574.41,535.05c0.04-0.55-0.62-1.12-1.22-1.71
			c-10.45-10.16-20.89-20.33-31.34-30.49c-1.33-1.29-2.34-1.29-3.65-0.01c-9.61,9.34-19.21,18.69-28.82,28.03
			c-1.04,1.01-2.09,2-3.09,3.04c-0.87,0.9-0.88,2.08-0.1,2.92c0.82,0.86,2.01,0.88,2.99,0.05c0.18-0.16,0.36-0.32,0.53-0.49
			c9.6-9.35,19.21-18.69,28.81-28.04c1.33-1.29,1.65-1.31,2.96-0.03c8.68,8.44,17.35,16.88,26.03,25.33
			c1.14,1.11,2.28,2.23,3.46,3.31c0.63,0.58,1.39,0.7,2.18,0.35C573.93,536.95,574.36,536.33,574.41,535.05z M520.19,558.9
			C520.18,558.9,520.18,558.9,520.19,558.9c-0.01,4.1,0,8.19-0.02,12.29c0,0.63,0.13,0.91,0.85,0.91c4.73-0.03,9.46-0.03,14.19,0
			c0.76,0,0.96-0.24,0.96-0.98c-0.02-8.19-0.02-16.39,0.01-24.58c0-0.75-0.26-0.9-0.94-0.89c-4.7,0.02-9.4,0.03-14.1,0
			c-0.76-0.01-0.97,0.23-0.96,0.97C520.2,550.71,520.19,554.8,520.19,558.9z M568.41,574.57c-19.01,0-37.91,0-56.79,0
			c0,1.22,0,2.35,0,3.51c18.96,0,37.86,0,56.79,0C568.41,576.88,568.41,575.74,568.41,574.57z M555.46,505.47c3.85,0,7.6,0,11.36,0
			c0-1.23,0-2.38,0-3.52c-3.82,0-7.57,0-11.36,0C555.46,503.14,555.46,504.27,555.46,505.47z"/>
		<path class="st1" d="M562.22,553.02c0,4.28,0,8.55,0,12.83c0,1.97-0.7,2.67-2.67,2.67c-5.15,0-10.3,0-15.45,0
			c-1.89,0-2.61-0.74-2.61-2.64c0-8.58,0-17.17,0-25.75c0-1.87,0.76-2.64,2.62-2.64c5.09,0,10.18,0,15.27,0
			c2.18,0,2.83,0.66,2.83,2.87C562.22,544.58,562.22,548.8,562.22,553.02z M543.86,554.69c2.2,0,4.24,0.02,6.29-0.03
			c0.18,0,0.5-0.4,0.5-0.62c0.04-2.56,0.01-5.12,0.03-7.68c0-0.56-0.2-0.73-0.74-0.72c-1.66,0.02-3.32,0.07-4.97-0.02
			c-0.97-0.05-1.22,0.3-1.12,1.18c0.06,0.54,0.01,1.08,0.01,1.63C543.86,550.46,543.86,552.51,543.86,554.69z M559.7,554.68
			c0.06-0.18,0.12-0.29,0.12-0.4c0.01-2.68,0-5.35,0.02-8.03c0-0.49-0.23-0.61-0.67-0.61c-1.83,0.01-3.67,0.01-5.51,0
			c-0.47,0-0.63,0.18-0.63,0.64c0.01,2.59,0.02,5.17,0.01,7.76c0,0.45,0.15,0.65,0.62,0.65
			C555.65,554.67,557.63,554.68,559.7,554.68z M559.83,557.14c-2.32,0-4.5,0-6.78,0c0,2.88-0.01,5.7,0.02,8.51
			c0,0.16,0.32,0.44,0.5,0.44c1.92,0.03,3.85,0.03,5.77,0c0.16,0,0.46-0.31,0.46-0.48C559.84,562.82,559.83,560.03,559.83,557.14z
			 M543.95,557.14c-0.04,0.16-0.08,0.28-0.08,0.39c0,2.65,0.01,5.29-0.01,7.94c0,0.63,0.34,0.66,0.81,0.66
			c1.71-0.01,3.43-0.03,5.14,0.01c0.67,0.02,0.88-0.2,0.87-0.88c-0.04-2.29-0.02-4.57-0.02-6.86c0-0.41,0-0.81,0-1.26
			C548.33,557.14,546.15,557.14,543.95,557.14z M559.84,539.94c-5.39,0-10.64,0-15.97,0c0,0.97-0.04,1.87,0.03,2.77
			c0.01,0.2,0.39,0.52,0.59,0.52c4.91,0.03,9.82,0.03,14.72,0c0.21,0,0.58-0.33,0.6-0.53C559.87,541.81,559.84,540.91,559.84,539.94
			z"/>
		<path class="st1" d="M534.48,557.2c0,1.98-1.58,3.57-3.54,3.56c-1.94,0-3.57-1.63-3.57-3.57c0-1.93,1.64-3.58,3.57-3.57
			C532.89,553.62,534.48,555.24,534.48,557.2z M529.76,557.12c-0.05,0.6,0.44,1.17,1.05,1.24c0.67,0.07,1.25-0.41,1.27-1.08
			c0.02-0.7-0.33-1.14-1.02-1.23C530.41,555.95,529.81,556.47,529.76,557.12z"/>
	</g>
</g>
</svg>
