<?xml version="1.0" encoding="utf-8"?>
<!-- Generator: Adobe Illustrator 25.0.1, SVG Export Plug-In . SVG Version: 6.00 Build 0)  -->
<svg version="1.1" id="Layer_1" xmlns="http://www.w3.org/2000/svg" xmlns:xlink="http://www.w3.org/1999/xlink" x="0px" y="0px"
	 viewBox="0 0 1080 1080" style="enable-background:new 0 0 1080 1080;" xml:space="preserve">
<style type="text/css">
	.st0{fill:#F47521;}
	.st1{fill:#FFFFFF;}
</style>
<g>
	<g>
		<circle class="st0" cx="540" cy="540" r="63"/>
	</g>
	<g>
		<path class="st1" d="M573.2,570.52c-4.43,0-8.74,0-13.12,0c0,1.74,0,3.4,0,5.1c-13.4,0-26.72,0-40.15,0c0-1.69,0-3.36,0-5.12
			c-4.42,0-8.73,0-13.13,0c0.23-1.79,0.44-3.48,0.66-5.18c0.56-4.28,1.12-8.56,1.67-12.84c0.61-4.7,1.21-9.4,1.82-14.1
			c0.72-5.57,1.44-11.14,2.17-16.71c0.19-1.47,0.24-2.98,0.61-4.4c0.76-2.9,2.78-4.52,5.71-5.05c2.84-0.51,5.66-1.09,8.51-1.53
			c0.95-0.15,1.15-0.54,1.07-1.39c-0.17-1.69,0.25-3.22,1.76-4.14c0.69-0.42,1.57-0.73,2.37-0.74c5.01-0.07,10.02-0.05,15.03-0.02
			c2.27,0.01,3.88,1.57,4.11,3.83c0.01,0.13,0.03,0.26,0.03,0.4c0.09,1.93,0.09,1.93,1.99,2.27c2.63,0.47,5.26,0.92,7.89,1.41
			c3.21,0.59,5.38,3.14,5.66,6.39c0.38,4.3,0.87,8.59,1.31,12.89c0.51,4.9,1.01,9.8,1.52,14.71c0.45,4.37,0.91,8.75,1.37,13.12
			C572.45,563.07,572.82,566.73,573.2,570.52z M509.74,567.83c3.5,0,6.88,0,10.29,0c0.13-1.67,0.25-3.28,0.37-4.88
			c0.61-8.59,1.21-17.19,1.81-25.78c0.1-1.4,0.14-2.81,0.34-4.2c0.06-0.45,0.44-0.97,0.83-1.21c0.28-0.17,1-0.07,1.2,0.17
			c0.31,0.38,0.51,0.99,0.48,1.48c-0.28,4.55-0.62,9.1-0.95,13.64c-0.52,7.43-1.06,14.86-1.56,22.29c-0.08,1.23-0.01,2.47-0.01,3.67
			c11.71,0,23.31,0,34.9,0c0-1.6,0.08-3.14-0.02-4.66c-0.26-4.21-0.59-8.41-0.89-12.61c-0.35-4.84-0.7-9.68-1.04-14.51
			c-0.19-2.7-0.39-5.39-0.55-8.09c-0.06-0.92,0.47-1.52,1.24-1.54c0.72-0.02,1.27,0.54,1.33,1.39c0.31,4.31,0.63,8.62,0.94,12.93
			c0.45,6.32,0.89,12.64,1.33,18.96c0.07,0.99,0.16,1.98,0.24,2.96c3.5,0,6.88,0,10.31,0c-0.14-1.3-0.27-2.55-0.41-3.83
			c-0.7,0-1.28,0-1.86,0c-1.27,0-2.55,0.02-3.82-0.01c-0.95-0.02-1.52-0.51-1.53-1.27c-0.02-0.8,0.55-1.3,1.55-1.34
			c0.56-0.02,1.11,0,1.67,0c1.21,0,2.42,0,3.69,0c-0.02-0.45-0.02-0.79-0.06-1.13c-0.58-5.67-1.17-11.33-1.76-16.99
			c-0.85-8.2-1.69-16.39-2.54-24.59c-0.19-1.85-1.6-3.48-3.34-3.8c-3.23-0.59-6.46-1.16-9.69-1.76c-0.43-0.08-0.72-0.05-1.04,0.31
			c-0.77,0.89-1.8,1.31-2.96,1.31c-5.06,0.02-10.13,0.02-15.19,0c-1.16,0-2.19-0.44-2.95-1.33c-0.31-0.36-0.59-0.4-1.02-0.32
			c-3.2,0.61-6.41,1.19-9.61,1.78c-1.77,0.33-3.13,1.8-3.34,3.58c-0.22,1.79-0.47,3.57-0.7,5.36c-0.72,5.57-1.43,11.14-2.15,16.71
			c-0.61,4.75-1.24,9.5-1.85,14.26c-0.28,2.17-0.55,4.34-0.83,6.62c1.65,0,3.23,0,4.81,0c1.28,0,1.92,0.42,1.93,1.28
			c0.02,0.89-0.63,1.33-1.96,1.33c-1.69,0-3.38,0-5.12,0C510.07,565.33,509.91,566.55,509.74,567.83z M540.68,512.16
			c2.41,0,4.82,0.01,7.23,0c1.25-0.01,1.79-0.56,1.8-1.8c0.01-0.45,0-0.9,0-1.35c0-1.55-0.49-2.04-2.05-2.04c-3.34,0-6.68,0-10.02,0
			c-1.4,0-2.81-0.01-4.21,0c-1.29,0.01-1.85,0.58-1.85,1.84c0,0.48,0,0.95,0,1.43c0.01,1.38,0.53,1.91,1.94,1.91
			C535.91,512.16,538.3,512.16,540.68,512.16z"/>
	</g>
</g>
</svg>
