<?xml version="1.0" encoding="utf-8"?>
<!-- Generator: Adobe Illustrator 25.0.1, SVG Export Plug-In . SVG Version: 6.00 Build 0)  -->
<svg version="1.1" id="Layer_1" xmlns="http://www.w3.org/2000/svg" xmlns:xlink="http://www.w3.org/1999/xlink" x="0px" y="0px"
	 viewBox="0 0 1080 1080" style="enable-background:new 0 0 1080 1080;" xml:space="preserve">
<style type="text/css">
	.st0{fill:#5862AA;}
	.st1{fill:#F2F2F2;}
</style>
<g>
	<g>
		<circle class="st0" cx="540" cy="540" r="63"/>
	</g>
	<g>
		<path class="st1" d="M530.31,556.29c1.89,0.64,3.02,1.95,3.34,4.01c1.79,0.03,3.32,0.64,4.31,2.2c0.97,1.54,0.91,3.14,0.1,4.83
			c1.11,1.1,2.2,2.22,3.35,3.28c0.8,0.75,2.01,0.67,2.74-0.07c0.77-0.77,0.81-1.96-0.01-2.82c-1.58-1.65-3.22-3.24-4.83-4.86
			c-0.69-0.7-0.76-1.4-0.22-1.97c0.55-0.59,1.33-0.52,2.06,0.17c0.14,0.13,0.28,0.28,0.42,0.42c1.38,1.38,2.76,2.77,4.16,4.15
			c1.03,1.02,2.27,1.11,3.1,0.25c0.86-0.88,0.76-2.04-0.29-3.1c-1.49-1.51-3-3-4.49-4.5c-0.77-0.78-0.85-1.44-0.29-2.04
			c0.58-0.61,1.32-0.53,2.11,0.25c1.5,1.5,2.97,3.03,4.52,4.48c0.44,0.41,1.1,0.75,1.69,0.82c0.83,0.1,1.49-0.4,1.83-1.2
			c0.35-0.86,0.12-1.6-0.51-2.23c-1.45-1.46-2.91-2.91-4.36-4.36c-0.18-0.18-0.38-0.36-0.55-0.56c-0.53-0.59-0.61-1.22-0.08-1.85
			c0.49-0.57,1.28-0.59,1.91,0.02c1.34,1.29,2.64,2.62,3.96,3.93c0.37,0.37,0.72,0.76,1.11,1.1c0.85,0.74,1.97,0.71,2.73-0.06
			c0.74-0.74,0.78-1.93,0.06-2.74c-0.37-0.42-0.78-0.79-1.17-1.18c-2.47-2.47-4.94-4.94-7.4-7.41c-0.25-0.25-0.52-0.5-0.72-0.8
			c-0.38-0.56-0.35-1.23,0.19-1.56c0.41-0.25,1.06-0.21,1.59-0.15c0.26,0.03,0.49,0.4,0.72,0.63c2.93,2.93,5.86,5.86,8.97,8.97
			c0.66-0.72,1.26-1.43,1.92-2.09c1.58-1.6,3.18-3.19,4.77-4.78c0.73-0.72,1.49-0.8,2.05-0.24c0.56,0.55,0.49,1.34-0.23,2.06
			c-2.32,2.34-4.66,4.66-6.98,7c-0.24,0.24-0.5,0.55-0.56,0.86c-0.62,3.12-1.55,4.1-4.63,4.69c-0.32,2.77-1.88,4.33-4.68,4.62
			c-0.19,2.03-1.05,3.67-2.99,4.22c-1.25,0.36-1.69,0.9-2.08,2.11c-0.94,2.92-4.74,3.88-7.08,1.85c-1.2-1.04-2.17-2.34-3.33-3.61
			c-0.84,0.83-1.49,1.41-2.07,2.05c-1.39,1.53-3.06,2.25-5.09,1.63c-2.06-0.64-3.08-2.19-3.31-4.36c-2.69-0.31-4.3-1.78-4.58-4.59
			c-2.73-0.29-4.25-1.81-4.59-4.49c-4.79-1.46-5.95-4.74-2.86-8.26c-0.33-0.41-0.68-0.83-0.99-1.27c-1.08-1.5-1.13-3.23-1.04-4.97
			c0.05-0.85-0.21-1.46-0.84-2.04c-1.4-1.32-2.72-2.73-4.11-4.06c-0.27-0.25-0.72-0.45-1.08-0.44c-1.19,0.04-2.18-0.37-3-1.18
			c-2.09-2.07-4.16-4.14-6.23-6.23c-0.75-0.75-0.81-1.48-0.24-2.06c0.57-0.58,1.36-0.49,2.13,0.28c1.99,1.98,3.97,3.97,5.95,5.95
			c0.91,0.91,1.24,0.91,2.18-0.02c0.53-0.53,1.06-1.06,1.59-1.59c0.57-0.56,1.2-0.65,1.83-0.12c0.58,0.49,0.6,1.29,0,1.9
			c-0.47,0.48-1.04,0.88-1.63,1.36c1.87,1.87,3.51,3.55,5.2,5.17c0.59,0.57,0.86,1.17,0.81,1.98c-0.05,0.85-0.03,1.7-0.01,2.54
			c0.03,1.12,0.38,2.1,1.41,2.87c1.19-1.33,2.66-2.04,4.49-1.71c1.81,0.32,2.92,1.47,3.56,3.12
			C527.79,549.11,531.39,552.02,530.31,556.29z M527.91,555.04c0-1.14-0.34-1.76-1.1-2.12c-0.84-0.4-1.6-0.2-2.24,0.42
			c-1.47,1.44-2.92,2.89-4.36,4.36c-0.89,0.91-0.89,2.07-0.08,2.87c0.81,0.79,1.93,0.75,2.87-0.16c1.42-1.39,2.84-2.79,4.21-4.23
			C527.57,555.8,527.78,555.27,527.91,555.04z M536.35,564.81c-0.49-0.58-0.86-1.23-1.41-1.63c-0.67-0.48-1.47-0.33-2.07,0.23
			c-1.25,1.19-2.49,2.39-3.66,3.66c-0.81,0.88-0.67,2.01,0.19,2.78c0.8,0.71,1.9,0.69,2.72-0.11c1.15-1.11,2.29-2.23,3.38-3.4
			C535.84,565.98,536,565.46,536.35,564.81z M525.83,565.85c0.61-0.23,1.09-0.29,1.37-0.55c1.19-1.11,2.36-2.25,3.46-3.45
			c0.65-0.71,0.51-1.82-0.14-2.5c-0.66-0.69-1.76-0.87-2.48-0.22c-1.24,1.11-2.45,2.26-3.5,3.54c-0.35,0.43-0.35,1.4-0.13,1.97
			C524.63,565.16,525.36,565.48,525.83,565.85z M519.93,549.74c-0.59,0.21-1.05,0.24-1.3,0.48c-1.14,1.07-2.27,2.15-3.31,3.32
			c-0.63,0.71-0.46,1.73,0.19,2.4c0.66,0.69,1.76,0.86,2.48,0.22c1.14-1.01,2.27-2.07,3.21-3.26c0.35-0.44,0.35-1.4,0.12-1.97
			C521.12,550.41,520.38,550.1,519.93,549.74z"/>
		<path class="st1" d="M552.91,528.8c1.41-1.55,2.84-3.11,4.37-4.79c-0.97-1.5-0.18-2.8,1.14-4.09c3.13-3.05,6.19-6.17,9.29-9.26
			c0.59-0.59,1.45-0.64,1.92-0.17c0.49,0.49,0.46,1.32-0.09,1.94c-0.15,0.17-0.32,0.33-0.48,0.49c-2.93,2.93-5.86,5.86-8.8,8.79
			c-0.25,0.25-0.56,0.45-0.96,0.76c5.88,5.61,11.6,11.07,17.41,16.61c0.28-0.26,0.53-0.49,0.77-0.73c1.34-1.34,2.65-2.7,4.01-4.02
			c0.66-0.65,1.49-0.67,2-0.1c0.6,0.68,0.42,1.33-0.15,1.91c-1.53,1.56-3.06,3.12-4.64,4.63c-0.89,0.85-1.95,1.11-3.16,0.58
			c-0.21-0.09-0.62,0-0.81,0.16c-0.58,0.48-1.07,1.05-1.63,1.55c-0.6,0.55-1.28,0.7-1.91,0.06c-0.63-0.65-0.45-1.31,0.11-1.9
			c0.59-0.61,1.22-1.18,1.91-1.84c-4.69-4.48-9.3-8.88-14.14-13.5c-1.5,1.61-2.95,3.2-4.45,4.75c-1.06,1.09-1.82,1.28-3.02,0.41
			c-3.11-2.25-6.53-2.97-10.31-2.65c-2.3,0.2-4.63-0.01-6.95,0.07c-0.61,0.02-1.33,0.33-1.78,0.74c-1.47,1.34-2.86,2.77-4.25,4.19
			c-1.15,1.17-1.25,2.73-0.3,3.76c1.06,1.14,2.45,1.15,3.82,0.02c1.13-0.93,2.25-1.89,3.42-2.78c0.39-0.3,0.92-0.55,1.39-0.56
			c1.92-0.06,3.85-0.05,5.77-0.02c1.21,0.02,1.53,0.42,1.54,1.62c0,0.28,0.16,0.61,0.36,0.81c0.78,0.83,1.61,1.61,2.41,2.43
			c0.7,0.72,0.77,1.52,0.22,2.08c-0.55,0.57-1.3,0.5-2.06-0.24c-1.21-1.19-2.37-2.43-3.62-3.58c-0.34-0.31-0.88-0.49-1.35-0.57
			c-2.1-0.36-3.8,0.31-5.34,1.84c-0.94,0.93-2.17,1.72-3.42,2.15c-2.1,0.73-4.35-0.26-5.53-2.09c-1.24-1.94-1.17-4.37,0.37-6.08
			c1.59-1.77,3.33-3.41,5-5.11c0.09-0.09,0.18-0.19,0.45-0.48c-0.99-0.53-1.88-1.09-2.84-1.49c-1.86-0.78-3.88-1.26-5.07-3.23
			c-2.01,2.01-3.92,3.92-5.83,5.83c-1.08,1.08-2.16,2.18-3.26,3.25c-0.75,0.74-1.61,0.82-2.15,0.24c-0.52-0.56-0.42-1.32,0.32-2.06
			c3.18-3.19,6.37-6.37,9.55-9.55c1.26-1.26,1.26-1.44,0.04-2.67c-1.42-1.44-2.86-2.87-4.27-4.31c-0.76-0.77-0.84-1.46-0.27-2.05
			c0.54-0.56,1.36-0.5,2.07,0.21c1.71,1.71,3.41,3.42,5.09,5.16c0.8,0.83,1,1.88,0.8,3c-0.08,0.43-0.41,1.04-0.24,1.26
			c0.49,0.62,1.13,1.18,1.82,1.58c0.72,0.42,1.56,0.65,2.36,0.94c1.59,0.58,2.98,1.43,4.17,2.66c0.29,0.3,0.83,0.5,1.26,0.51
			c3.59,0.04,7.18,0.05,10.77,0.01c1.25-0.02,2.37,0.26,3.44,0.89C550.38,527.45,551.59,528.08,552.91,528.8z"/>
	</g>
</g>
</svg>
