<?xml version="1.0" encoding="utf-8"?>
<!-- Generator: Adobe Illustrator 25.0.1, SVG Export Plug-In . SVG Version: 6.00 Build 0)  -->
<svg version="1.1" id="Layer_1" xmlns="http://www.w3.org/2000/svg" xmlns:xlink="http://www.w3.org/1999/xlink" x="0px" y="0px"
	 viewBox="0 0 1080 1080" style="enable-background:new 0 0 1080 1080;" xml:space="preserve">
<style type="text/css">
	.st0{fill:#862665;}
	.st1{fill:#F2F2F2;}
</style>
<g>
	<g>
		<circle class="st0" cx="540" cy="540" r="63"/>
	</g>
	<g>
		<path class="st1" d="M558.93,512.71c-13.76,0-27.44,0-41.15,0c0,18.2,0,36.37,0,54.62c0.29,0,0.54,0,0.8,0
			c8.6,0,17.2-0.01,25.8,0.02c0.66,0,0.85-0.19,0.92-0.83c0.23-2.39,0.51-4.78,0.79-7.16c0.04-0.31,0.18-0.63,0.34-0.91
			c4.05-7.03,8.12-14.05,12.16-21.08c0.22-0.38,0.34-0.86,0.34-1.3c0.03-2.98,0.01-5.96,0.02-8.93c0-0.24,0-0.49,0.03-0.73
			c0.08-0.58,0.45-0.9,1.01-0.96c0.6-0.06,1.02,0.24,1.2,0.82c0.08,0.27,0.09,0.56,0.09,0.85c0.01,1.78,0,3.55,0.12,5.37
			c0.11-0.17,0.23-0.35,0.33-0.52c1.24-2.16,2.47-4.32,3.73-6.47c1.31-2.25,3.89-3.2,6.12-2.28c2.84,1.18,3.89,4.39,2.29,7.18
			c-3.23,5.64-6.49,11.27-9.74,16.9c-0.85,1.47-1.71,2.93-2.53,4.42c-0.18,0.33-0.29,0.74-0.29,1.12
			c-0.02,5.03-0.01,10.06-0.01,15.09c0,1.41-0.35,1.75-1.77,1.75c-14.11,0-28.22,0-42.33,0c-1.47,0-1.77-0.3-1.77-1.79
			c0-18.57,0-37.14,0-55.72c0-1.49,0.3-1.79,1.77-1.79c14.11,0,28.22,0,42.33,0c1.42,0,1.77,0.34,1.77,1.75c0,1.19,0,2.38,0,3.57
			c0,0.2,0,0.4-0.04,0.59c-0.12,0.64-0.6,1.03-1.2,1.01c-0.61-0.03-1.06-0.44-1.09-1.11c-0.04-0.9-0.02-1.81-0.02-2.71
			C558.93,513.22,558.93,512.98,558.93,512.71z M570.15,532.16c-1.51-0.87-2.93-1.7-4.4-2.54c-5.67,9.8-11.3,19.55-16.96,29.34
			c1.49,0.86,2.93,1.69,4.43,2.55C558.87,551.71,564.49,541.96,570.15,532.16z M558.89,567.29c0-3.63,0-7.2,0-10.97
			c-0.83,1.44-1.65,2.66-2.27,3.98c-1.22,2.56-2.97,4.59-5.42,6.01c-0.42,0.25-0.79,0.58-1.32,0.98
			C552.98,567.29,555.9,567.29,558.89,567.29z M571.29,530.12c0.73-1.11,1.43-2.21,0.74-3.56c-0.5-0.98-1.36-1.44-2.44-1.37
			c-1.49,0.1-2.07,1.23-2.64,2.42C568.4,528.45,569.83,529.27,571.29,530.12z M548.19,561.28c-0.18,1.61-0.35,3.11-0.53,4.73
			c1.33-0.96,2.56-1.86,3.87-2.81C550.4,562.55,549.34,561.94,548.19,561.28z"/>
		<path class="st1" d="M538.33,522.64c3.79,0,7.58-0.01,11.37,0.02c0.39,0,0.88,0.12,1.13,0.38c0.23,0.22,0.34,0.76,0.23,1.07
			c-0.12,0.33-0.52,0.59-0.85,0.79c-0.18,0.11-0.47,0.04-0.71,0.04c-7.45,0-14.89,0-22.34,0c-0.07,0-0.13,0-0.2,0
			c-0.94-0.01-1.48-0.43-1.48-1.15c0-0.72,0.54-1.14,1.49-1.14C530.75,522.63,534.54,522.64,538.33,522.64z"/>
		<path class="st1" d="M538.34,531.42c-3.79,0-7.58,0.01-11.37-0.02c-0.41,0-0.92-0.14-1.19-0.4c-0.64-0.62-0.21-1.7,0.69-1.85
			c0.24-0.04,0.48-0.03,0.73-0.03c7.42,0,14.85,0,22.27,0c1.16,0,1.67,0.35,1.69,1.13c0.02,0.8-0.53,1.17-1.72,1.17
			C545.75,531.42,542.05,531.42,538.34,531.42z"/>
		<path class="st1" d="M538.33,544.39c-3.74,0-7.49,0-11.23-0.01c-0.3,0-0.69,0.03-0.89-0.14c-0.31-0.25-0.68-0.66-0.68-1.01
			c0-0.34,0.36-0.76,0.67-1.01c0.22-0.17,0.63-0.14,0.95-0.14c7.45-0.01,14.89-0.01,22.34-0.01c0.02,0,0.04,0,0.07,0
			c1.08,0,1.61,0.38,1.61,1.15c0,0.76-0.53,1.15-1.6,1.15C545.82,544.39,542.07,544.39,538.33,544.39z"/>
		<path class="st1" d="M531.77,555.07c1.63,0,3.26-0.01,4.89,0.01c1.08,0.01,1.66,0.9,1.11,1.72c-0.19,0.28-0.63,0.54-0.97,0.55
			c-3.39,0.04-6.78,0.03-10.17,0.01c-0.68,0-1.15-0.53-1.16-1.13c0-0.63,0.49-1.13,1.21-1.14
			C528.38,555.05,530.08,555.07,531.77,555.07C531.77,555.07,531.77,555.07,531.77,555.07z"/>
		<path class="st1" d="M545.7,537.91c-1.34,0-2.68,0.01-4.02,0c-0.88-0.01-1.41-0.45-1.42-1.14c0-0.7,0.53-1.15,1.41-1.15
			c2.71-0.01,5.41-0.01,8.12,0c0.87,0,1.39,0.46,1.37,1.18c-0.02,0.7-0.51,1.11-1.37,1.12C548.43,537.91,547.07,537.91,545.7,537.91
			z"/>
		<path class="st1" d="M530.49,537.91c-1.21,0-2.42,0.01-3.63,0c-0.85-0.01-1.35-0.42-1.38-1.12c-0.03-0.7,0.51-1.17,1.38-1.18
			c2.42-0.01,4.84-0.01,7.27,0c0.85,0,1.35,0.42,1.37,1.11c0.02,0.71-0.5,1.17-1.37,1.18C532.91,537.91,531.7,537.91,530.49,537.91z
			"/>
		<path class="st1" d="M541.45,550.88c-1.12,0-2.25,0.01-3.37,0c-0.9-0.01-1.41-0.43-1.41-1.14c0-0.72,0.51-1.15,1.4-1.15
			c2.25-0.01,4.5-0.01,6.74,0c0.88,0,1.41,0.47,1.39,1.17c-0.02,0.69-0.53,1.11-1.38,1.12
			C543.69,550.89,542.57,550.88,541.45,550.88z"/>
		<path class="st1" d="M529.59,550.88c-0.92,0-1.85,0.01-2.77,0c-0.83-0.01-1.35-0.47-1.34-1.15c0.01-0.69,0.52-1.13,1.36-1.14
			c1.85-0.01,3.7-0.01,5.55,0c0.84,0,1.35,0.44,1.37,1.12c0.02,0.7-0.52,1.16-1.39,1.17C531.44,550.89,530.51,550.88,529.59,550.88z
			"/>
		<path class="st1" d="M561.24,521.36c0,0.58-0.56,1.14-1.14,1.15c-0.59,0.01-1.19-0.6-1.17-1.19c0.02-0.58,0.59-1.12,1.17-1.11
			C560.69,520.22,561.24,520.78,561.24,521.36z"/>
	</g>
</g>
</svg>
