<?xml version="1.0" encoding="utf-8"?>
<!-- Generator: Adobe Illustrator 25.0.1, SVG Export Plug-In . SVG Version: 6.00 Build 0)  -->
<svg version="1.1" id="Layer_1" xmlns="http://www.w3.org/2000/svg" xmlns:xlink="http://www.w3.org/1999/xlink" x="0px" y="0px"
	 viewBox="0 0 1080 1080" style="enable-background:new 0 0 1080 1080;" xml:space="preserve">
<style type="text/css">
	.st0{fill:#FFE539;}
	.st1{fill:#4D4D4D;}
</style>
<g>
	<g>
		<circle class="st0" cx="540" cy="540" r="63"/>
	</g>
	<g>
		<path class="st1" d="M519.39,539.98c0-10.44,0-20.88,0-31.32c0-3.28,1.73-5.02,5-5.02c10.41,0,20.82,0,31.24,0
			c3.26,0,5,1.74,5,5.02c0,20.91,0,41.81,0,62.72c0,3.21-1.76,4.98-4.95,4.98c-10.44,0-20.88,0-31.32,0c-3.2,0-4.96-1.77-4.96-4.98
			C519.39,560.91,519.39,550.45,519.39,539.98z M521.89,513.39c0,16.19,0,32.28,0,48.39c12.11,0,24.16,0,36.24,0
			c0-16.15,0-32.25,0-48.39C546.03,513.39,533.98,513.39,521.89,513.39z M521.83,564.25c0,2.68-0.03,5.27,0.01,7.86
			c0.02,1.11,0.87,1.8,2.09,1.8c10.71,0.01,21.41,0.01,32.12,0c1.36,0,2.11-0.76,2.12-2.12c0.01-1.51,0-3.03,0-4.54
			c0-0.99,0-1.98,0-3C546.03,564.25,533.98,564.25,521.83,564.25z M521.83,510.86c12.16,0,24.23,0,36.35,0c0-0.76,0-1.46,0-2.16
			c0-2.01-0.61-2.62-2.6-2.62c-10.38,0-20.76,0-31.14,0c-0.27,0-0.54-0.01-0.81,0.01c-1.04,0.1-1.75,0.81-1.79,1.86
			C521.8,508.9,521.83,509.84,521.83,510.86z"/>
		<path class="st1" d="M539.95,572.67c-0.65,0-1.3,0.07-1.94-0.01c-1.88-0.23-2.93-1.71-2.86-3.94c0.06-1.75,1.38-3.15,3.11-3.24
			c1.13-0.06,2.27-0.05,3.4-0.01c1.85,0.07,3.16,1.52,3.18,3.42c0.02,2.21-1.16,3.67-3.11,3.81c-0.59,0.04-1.19,0.01-1.78,0.01
			C539.95,572.69,539.95,572.68,539.95,572.67z M540.03,570.32c0,0,0-0.01,0-0.01c0.49,0,0.98,0.04,1.46-0.01
			c0.7-0.07,0.98-0.51,0.95-1.34c-0.03-0.67-0.33-1.06-1.05-1.06c-0.84,0-1.67,0-2.51,0c-1.01,0.01-1.31,0.29-1.31,1.2
			c0,0.88,0.35,1.21,1.33,1.22C539.27,570.33,539.65,570.32,540.03,570.32z"/>
		<path class="st1" d="M539.92,509.69c-1.92,0-3.84,0.02-5.76-0.01c-1.16-0.01-1.81-0.97-1.19-1.81c0.23-0.32,0.76-0.58,1.15-0.58
			c3.92-0.04,7.84-0.04,11.76-0.02c0.85,0,1.37,0.5,1.38,1.19c0.02,0.72-0.53,1.21-1.43,1.22
			C543.87,509.7,541.89,509.69,539.92,509.69z"/>
		<path class="st1" d="M554,509.69c-1.28,0-1.84-0.36-1.85-1.19c-0.01-0.87,0.58-1.25,1.9-1.24c1.34,0.01,2.13,0.93,1.49,1.8
			c-0.3,0.4-0.94,0.55-1.43,0.82C554.07,509.82,554.03,509.76,554,509.69z"/>
	</g>
</g>
</svg>
