<?xml version="1.0" encoding="utf-8"?>
<!-- Generator: Adobe Illustrator 25.0.1, SVG Export Plug-In . SVG Version: 6.00 Build 0)  -->
<svg version="1.1" id="Layer_1" xmlns="http://www.w3.org/2000/svg" xmlns:xlink="http://www.w3.org/1999/xlink" x="0px" y="0px"
	 viewBox="0 0 1080 1080" style="enable-background:new 0 0 1080 1080;" xml:space="preserve">
<style type="text/css">
	.st0{fill:#94D8E9;}
	.st1{fill:#00416B;}
</style>
<g>
	<g>
		<circle class="st0" cx="540" cy="540" r="63"/>
	</g>
	<g>
		<path class="st1" d="M542.76,531.35c3.56-3.53,7.02-6.96,10.48-10.4c0.82-0.81,1.62-1.65,2.45-2.45c0.69-0.67,1.4-1.27,1.29-2.41
			c-0.04-0.44,0.3-0.92,0.51-1.52c-0.41-0.33-0.9-0.73-1.4-1.12c0.64-0.59,1.13-1.04,1.7-1.56c0.28,0.35,0.68,0.84,1.07,1.32
			c0.67-0.64,1.21-1.15,1.87-1.78c-0.53-0.42-1.03-0.81-1.51-1.2c0.63-0.61,1.12-1.08,1.69-1.65c0.37,0.45,0.76,0.91,1.14,1.38
			c0.5-0.41,0.87-0.78,1.3-1.05c1.48-0.94,3.24-0.77,4.56,0.46c0.94,0.89,1.86,1.81,2.72,2.78c1.37,1.53,1.36,3.33,0.05,4.92
			c-0.19,0.23-0.41,0.45-0.65,0.73c0.43,0.45,0.84,0.89,1.29,1.35c-0.5,0.48-0.98,0.95-1.57,1.51c-0.37-0.47-0.75-0.96-1.13-1.45
			c-0.66,0.69-1.19,1.24-1.8,1.87c0.43,0.37,0.9,0.77,1.33,1.13c-0.51,0.56-0.96,1.06-1.45,1.6c-0.45-0.5-0.87-0.96-1.11-1.22
			c-1.1,0.17-1.95,0.29-2.78,0.44c-0.17,0.03-0.33,0.16-0.46,0.28c-4.55,4.55-9.1,9.1-13.65,13.65c-0.03,0.03-0.05,0.08-0.1,0.14
			c1.09,1.1,2.17,2.22,2.63,3.77c0.8,2.68,0.34,5.1-1.52,7.18c-1.16,1.3-2.45,2.49-3.64,3.76c-1.81,1.92-2.87,4.23-3.41,6.8
			c-1.12,5.29-4.01,9.28-8.96,11.55c-4.8,2.21-9.62,2.02-14.26-0.53c-1.18-0.65-2.3-1.5-3.28-2.43c-2.07-1.95-4.2-3.86-5.7-6.34
			c-3.65-6.04-2.54-14.38,2.55-19.26c2.35-2.26,5.1-3.67,8.28-4.3c2.93-0.58,5.44-1.92,7.53-4.06c1.02-1.04,2.04-2.09,3.13-3.06
			c2.93-2.61,7.44-2.39,10.16,0.45C542.35,530.87,542.56,531.12,542.76,531.35z M541.34,532.92c-2.36-3.03-6.18-3.24-8.65-0.59
			c-0.8,0.86-1.67,1.67-2.49,2.51c-2.29,2.31-5.02,3.8-8.2,4.46c-3.31,0.69-6.13,2.16-8.37,4.76c-4,4.66-4.36,11.9-0.6,16.75
			c1.45,1.87,3.17,3.55,4.89,5.18c4.18,3.93,10.64,4.66,15.64,1.9c3.78-2.09,6.05-5.29,6.96-9.48c0.52-2.37,1.25-4.68,2.81-6.57
			c1.34-1.63,2.87-3.12,4.33-4.65c0.97-1.02,1.67-2.16,1.78-3.59c0.17-2.1-0.84-3.65-2.4-5c-1.3,1.3-2.57,2.62-3.9,3.89
			c-0.67,0.64-1.25,1.25-1.08,2.27c0.04,0.24-0.07,0.51-0.12,0.76c-0.53,2.81-3.07,4.9-6.06,4.99c-2.86,0.09-5.54-1.88-6.24-4.58
			c-1.09-4.2,1.86-8.04,6.18-8.08c0.24,0,0.55-0.04,0.71-0.18C538.15,536.11,539.73,534.53,541.34,532.92z M541.44,541.06
			c6.33-6.33,12.71-12.71,19.05-19.05c-0.83-0.84-1.7-1.72-2.51-2.53c-6.36,6.36-12.75,12.75-19.06,19.06
			C539.74,539.36,540.61,540.23,541.44,541.06z M563.24,521.09c0.46-0.28,0.9-0.46,1.22-0.77c1.52-1.48,3.01-2.98,4.5-4.49
			c0.79-0.8,0.8-1.61,0.02-2.42c-0.83-0.86-1.69-1.71-2.56-2.54c-0.7-0.67-1.49-0.67-2.19,0.01c-1.58,1.55-3.14,3.12-4.69,4.7
			c-0.73,0.74-0.73,1.5-0.03,2.24c0.81,0.86,1.62,1.71,2.48,2.51C562.32,520.65,562.77,520.82,563.24,521.09z M535.73,548.35
			c2.34,0.02,4.22-1.81,4.24-4.11c0.02-2.31-1.89-4.26-4.2-4.26c-2.3-0.01-4.25,1.93-4.25,4.22
			C531.53,546.49,533.39,548.33,535.73,548.35z"/>
		<path class="st1" d="M530.56,558.99c-0.2,0.33-0.32,0.65-0.54,0.87c-0.93,0.97-1.88,1.91-2.84,2.85
			c-0.67,0.65-1.18,0.66-1.83,0.01c-2.72-2.71-5.44-5.42-8.15-8.15c-0.63-0.63-0.62-1.11,0.01-1.77c0.93-0.96,1.88-1.92,2.83-2.87
			c0.66-0.66,1.18-0.67,1.83-0.03c2.72,2.71,5.44,5.42,8.14,8.15C530.25,558.31,530.37,558.66,530.56,558.99z M527.81,559.04
			c-2.32-2.31-4.61-4.61-6.83-6.81c-0.49,0.45-1.05,0.98-1.45,1.35c2.28,2.31,4.56,4.62,6.8,6.88
			C526.8,560,527.32,559.5,527.81,559.04z"/>
	</g>
</g>
</svg>
