<?xml version="1.0" encoding="utf-8"?>
<!-- Generator: Adobe Illustrator 25.0.1, SVG Export Plug-In . SVG Version: 6.00 Build 0)  -->
<svg version="1.1" id="Layer_1" xmlns="http://www.w3.org/2000/svg" xmlns:xlink="http://www.w3.org/1999/xlink" x="0px" y="0px"
	 viewBox="0 0 1080 1080" style="enable-background:new 0 0 1080 1080;" xml:space="preserve">
<style type="text/css">
	.st0{fill:#EE3780;}
	.st1{fill:#FFFFFF;}
</style>
<g>
	<g>
		<circle class="st0" cx="540" cy="540" r="63"/>
	</g>
	<g>
		<path class="st1" d="M536.73,554.94c-1.25,0.05-2.28,0.2-3.15,0.45c-4.61,1.33-7.47,6.13-6.51,10.91
			c0.96,4.75,5.47,8.04,10.28,7.5c4.93-0.56,8.51-4.53,8.53-9.46c0.01-5.96,0.01-12.02,0.01-17.89c0-2.54,0-5.08,0-7.62v-1.9
			l28.26-4.46v17.59h-1.96c-0.56,0-1.13-0.01-1.69-0.01c-1.2-0.01-2.43-0.03-3.62,0.04c-4.11,0.23-6.98,2.17-8.51,5.78
			c-1.53,3.61-0.98,6.97,1.65,9.98c2.56,2.93,6.73,3.97,10.38,2.58c3.76-1.43,6.19-4.93,6.19-8.9c0.01-6.1,0.01-12.2,0.01-18.3
			l0-7.29c0-1.16,0-2.31,0-3.47c0-2.66,0.01-5.4-0.01-8.1c-0.01-1.45-0.63-2.79-1.69-3.7c-1.06-0.9-2.41-1.27-3.82-1.06
			c-7.48,1.15-14.93,2.33-23.19,3.65c-2.91,0.46-4.39,2.21-4.39,5.2c0,6.2,0,12.4,0,18.6l0,9.86h-1c-0.61,0-1.21-0.01-1.8-0.01
			c-0.58,0-1.14-0.01-1.7-0.01C538.24,554.9,537.48,554.91,536.73,554.94z M573.95,561c-0.46,3.28-3.39,5.57-6.9,5.57
			c-0.37,0-0.74-0.03-1.12-0.08c-3.4-0.47-6.06-3.69-5.93-7.19c0.13-3.64,3.08-6.61,6.71-6.75c1.49-0.06,2.98-0.04,4.43-0.03
			c0.64,0.01,1.27,0.01,1.9,0.01h1v1c0,0.76,0.03,1.53,0.05,2.28C574.14,557.51,574.2,559.28,573.95,561z M545.91,525.94
			c0.01-0.73,0.35-2.01,2.48-2.34c1.2-0.19,2.39-0.38,3.59-0.56c0.98-0.15,1.97-0.3,2.95-0.46c3.29-0.52,6.57-1.04,9.86-1.56
			l5.82-0.92c0.25-0.04,0.5-0.08,0.77-0.11c0.79-0.07,1.51,0.14,2.02,0.6c0.5,0.45,0.77,1.1,0.78,1.85
			c0.01,1.01,0.01,2.03,0.01,3.02c0,1.02,0,2.07,0.01,3.1c0.01,0.96-0.51,1.53-1.55,1.69c-3.93,0.62-7.86,1.24-11.79,1.86
			l-5.75,0.91c-2.37,0.38-4.74,0.75-7.11,1.13c-0.19,0.03-0.39,0.05-0.63,0.08c-0.11,0.01-0.23,0.02-0.36,0.04l-1.11,0.13v-1.12
			c0-0.72,0-1.42,0-2.12C545.89,529.37,545.88,527.67,545.91,525.94z M541.62,557.34c0.21,0,0.4,0.01,0.59,0.03
			c0.07,0.01,0.14,0.01,0.22,0.01l0.94,0.05v0.94c0,0.73,0.02,1.48,0.04,2.2c0.04,1.62,0.08,3.29-0.09,4.93
			c-0.37,3.4-3.33,5.93-6.86,5.93c-0.16,0-0.33-0.01-0.49-0.02c-3.71-0.25-6.58-3.16-6.67-6.77c-0.09-3.69,2.64-6.85,6.22-7.19
			c1.44-0.14,2.9-0.13,4.31-0.12C540.42,557.34,541.02,557.35,541.62,557.34z"/>
		<path class="st1" d="M518.79,552.15c1.41-1.71,2.07-3.71,2.06-6.29c-0.02-8.46-0.02-17.06-0.02-25.38l0-8.01
			c0-1.75,0.56-2.4,2.3-2.67c2.15-0.33,4.31-0.68,6.46-1.02l0.74-0.12c0.8-0.13,1.71-0.22,2.38,0.35c0.67,0.57,0.72,1.49,0.72,2.31
			c0,1.17,0,2.35,0,3.52c0,2.56-0.01,5.2,0.01,7.8c0,0.82,0.49,1.38,1.2,1.39c0.32,0.01,0.6-0.11,0.82-0.32
			c0.25-0.25,0.39-0.61,0.39-1.02l0.01-1.72c0.01-3.42,0.03-6.96-0.02-10.43c-0.02-1.34-0.55-2.54-1.51-3.36
			c-0.98-0.84-2.28-1.2-3.65-1c-1.4,0.2-2.82,0.43-4.19,0.65c-1.15,0.18-2.33,0.38-3.51,0.55c-3.21,0.47-4.57,2.06-4.57,5.3
			l-0.01,25.23l-1.38,0c-0.22,0-0.42,0-0.62,0c-0.51,0-1.01,0-1.52,0c-0.35,0-0.7,0-1.05,0c-0.75,0-1.51,0.01-2.25,0.04
			c-3.87,0.18-7.23,3.11-8,6.97c-0.78,3.94,1.19,7.78,4.92,9.56C511.91,556.12,516.34,555.12,518.79,552.15z M505.81,546.5
			c0.05-3.25,2.61-5.93,5.84-6.11c1.3-0.07,2.62-0.05,3.89-0.04c0.58,0.01,1.15,0.02,1.74,0.02h1v1c0,0.65,0.02,1.32,0.04,1.97
			c0.05,1.47,0.09,3-0.1,4.5c-0.38,2.82-3.1,5.04-6.02,5.04c-0.23,0-0.45-0.01-0.68-0.04C508.22,552.42,505.76,549.7,505.81,546.5z"
			/>
	</g>
</g>
</svg>
