<?xml version="1.0" encoding="utf-8"?>
<!-- Generator: Adobe Illustrator 25.0.1, SVG Export Plug-In . SVG Version: 6.00 Build 0)  -->
<svg version="1.1" id="Layer_1" xmlns="http://www.w3.org/2000/svg" xmlns:xlink="http://www.w3.org/1999/xlink" x="0px" y="0px"
	 viewBox="0 0 1080 1080" style="enable-background:new 0 0 1080 1080;" xml:space="preserve">
<style type="text/css">
	.st0{fill:#252379;}
	.st1{fill:#F2F2F2;}
</style>
<g>
	<g>
		<circle class="st0" cx="540" cy="540" r="63"/>
	</g>
	<g>
		<path class="st1" d="M505.49,547.29c-1.03-0.13-2.21-0.61-2.4-1.95c-0.21-1.42-0.2-2.91-0.02-4.34c0.15-1.22,1.28-1.94,2.61-1.98
			c0.77-0.03,1.53,0,2.13,0c0.61-1.9,1.08-3.71,1.76-5.44c0.76-1.92,1.97-3.56,3.69-4.78c1.3-0.92,2.75-1.37,4.34-1.37
			c3.2,0,6.4,0.01,9.6-0.01c0.3,0,0.6-0.11,0.97-0.19c-0.14-0.24-0.16-0.31-0.2-0.33c-1.97-0.66-2.38-1.22-2.38-3.3
			c0-0.63-0.02-1.27,0.01-1.9c0.05-1.32,0.95-2.3,2.26-2.43c0.74-0.07,1.48-0.01,2.28-0.01c0.21-0.9,0.37-1.73,0.59-2.54
			c0.63-2.26,1.62-4.34,3.35-5.98c1.36-1.29,2.95-1.97,4.85-1.97c8,0.01,16,0.01,24,0c2.06,0,3.73,0.83,5.15,2.25
			c0.5,0.5,0.61,1.06,0.15,1.62c-0.42,0.52-1.08,0.49-1.66-0.08c-1.18-1.18-2.59-1.65-4.26-1.64c-7.5,0.04-15.01,0.07-22.51-0.02
			c-2.64-0.03-4.4,1.12-5.69,3.26c-1.29,2.14-2.05,5.46-1.82,8.2c0.45-0.14,0.92-0.21,1.29-0.45c0.2-0.12,0.3-0.53,0.3-0.81
			c-0.02-2.02,0.32-3.95,1.24-5.76c1.01-1.99,2.47-3.04,4.85-3c7.42,0.09,14.84,0.07,22.26,0.01c1.88-0.01,3.15,0.78,4.1,2.28
			c1.08,1.7,1.58,3.56,1.63,5.56c0.01,0.55,0,1.09,0,1.64c0.56,0.19,1.04,0.36,1.61,0.55c0.16-1.77-0.11-3.43-0.51-5.09
			c-0.04-0.19-0.1-0.37-0.16-0.56c-0.2-0.67,0.05-1.15,0.67-1.4c0.6-0.24,1.17,0.07,1.39,0.8c0.25,0.82,0.45,1.65,0.59,2.49
			c0.08,0.46,0.26,0.59,0.69,0.58c0.85-0.01,1.71-0.02,2.56,0.06c1.27,0.12,2.17,1.07,2.24,2.36c0.05,0.94,0.05,1.88,0,2.81
			c-0.05,1.19-0.89,2.13-2.07,2.36c-0.37,0.07-0.76,0.08-1.19,0.13c0.83,2.74,0.35,5.54,0.5,8.3c0.02,0.38,0.15,0.81,0.36,1.11
			c1.07,1.48,0.59,3.96-0.96,4.93c-0.19,0.12-0.33,0.47-0.34,0.72c-0.12,3.24-0.68,3.79-3.96,3.79c-1.57,0-3.14,0.01-4.72,0
			c-1.95-0.01-2.96-1.03-2.98-2.96c0-0.44,0-0.87,0-1.38c-0.37-0.02-0.66-0.04-0.95-0.05c-0.27-0.01-0.55,0-0.98,0
			c0,0.81,0,1.57,0,2.33c0,2.62-0.79,3.44-3.42,3.55c-0.08,0-0.16,0.03-0.28,0.05c1.05,3.07,0.47,6.24,0.65,9.36
			c0.03,0.45,0.18,0.96,0.44,1.32c1.23,1.7,0.51,4.51-1.48,5.41c0,0.58,0.02,1.18,0,1.79c-0.06,1.95-1.12,3-3.07,3.01
			c-2.21,0.01-4.41,0.01-6.62,0c-1.89-0.01-2.98-1.08-3.02-2.96c-0.01-0.57,0-1.15,0-1.87c-2.07,0.25-4.1-0.39-6.08,0.4
			c-0.42,0.17-0.92,0.17-1.39,0.17c-3.06,0.01-6.12,0.03-9.18-0.01c-0.64-0.01-1.28-0.25-1.91-0.39c-0.11-0.02-0.21-0.11-0.31-0.11
			c-1.73-0.01-3.45-0.01-5.28-0.01c0,0.78,0.03,1.47-0.01,2.15c-0.07,1.49-1.09,2.57-2.57,2.61c-2.48,0.06-4.97,0.06-7.45,0
			c-1.55-0.03-2.57-1.18-2.59-2.75c0-0.28-0.03-0.56,0-0.83c0.1-0.77-0.05-1.29-0.88-1.66c-0.47-0.21-0.94-0.87-1.03-1.39
			c-0.22-1.34-0.46-2.75,0.67-3.91c0.16-0.16,0.17-0.51,0.17-0.77c0.02-1.54-0.04-3.09,0.02-4.63
			C505.21,550.62,505.37,548.98,505.49,547.29z M513.85,541.61c11.4,0,22.72,0,34.1,0c0-0.6,0.03-1.15-0.01-1.7
			c-0.15-2.16-0.7-4.18-2.16-5.86c-0.5-0.57-1.1-0.85-1.88-0.84c-3.25,0.03-6.51,0.01-9.76,0.01c-0.3,0-0.68,0.08-0.89-0.06
			c-0.35-0.24-0.82-0.63-0.81-0.95c0.01-0.38,0.43-0.8,0.76-1.1c0.16-0.14,0.53-0.07,0.8-0.07c3.14,0,6.29,0.08,9.43-0.03
			c2.2-0.08,3.68,0.9,4.79,2.64c1.41,2.21,1.91,4.66,1.95,7.24c0.02,1.3,0.14,1.41,1.56,1.59c0.11-3.35-0.49-6.54-2.21-9.45
			c-1.22-2.06-2.9-3.46-5.44-3.46c-8.8,0-17.6,0-26.39,0c-1.44,0-2.7,0.51-3.76,1.47c-1.87,1.7-2.83,3.91-3.39,6.31
			c-0.4,1.7-0.58,3.44-0.44,5.21c1.58-0.52,1.58-0.52,1.58-2.07c0-2.51,0.61-4.86,1.99-6.97c1.08-1.65,2.51-2.59,4.61-2.52
			c2.92,0.1,5.85,0.02,8.77,0.03c0.47,0,0.94-0.03,1.4,0.02c0.58,0.07,0.96,0.4,0.97,1.04c0.01,0.66-0.34,1.03-0.99,1.1
			c-0.27,0.03-0.55,0.02-0.83,0.02c-3.12,0-6.23,0.05-9.35-0.02c-1.28-0.03-2.09,0.51-2.74,1.49
			C514.13,536.77,513.72,539.09,513.85,541.61z M554.5,557.04c0-2.32,0.1-4.5-0.02-6.67c-0.18-3.23-2.36-5.78-5.44-6.33
			c-1.31-0.24-2.69-0.1-4.04-0.17c-0.51-0.03-0.8,0.17-1.05,0.6c-0.93,1.56-1.87,3.12-2.86,4.65c-1.05,1.63-2.59,2.45-4.51,2.46
			c-3.8,0.02-7.61,0.02-11.41,0c-1.9-0.01-3.4-0.84-4.45-2.42c-0.55-0.82-1.04-1.69-1.57-2.53c-0.57-0.9-0.97-2.16-1.79-2.6
			c-0.87-0.46-2.15-0.17-3.25-0.15c-3.68,0.07-6.52,2.7-6.75,6.37c-0.12,1.92-0.05,3.86-0.06,5.79c0,0.32,0.03,0.63,0.04,0.92
			c0.15,0.04,0.2,0.07,0.25,0.07c5.4,0.01,10.81,0.01,16.21,0.01c0.21,0,0.42-0.1,0.63-0.14c0.53-0.12,1.06-0.35,1.59-0.36
			c3.25-0.03,6.51-0.03,9.76-0.01c0.46,0,0.92,0.14,1.37,0.23c0.42,0.08,0.84,0.27,1.26,0.27c5.07,0.02,10.15,0.01,15.22,0.01
			C553.88,557.04,554.15,557.04,554.5,557.04z M565.73,521.59c0.16-2.31-0.17-4.4-1.56-6.24c-0.41-0.55-0.91-0.79-1.62-0.79
			c-7.77,0.02-15.55,0.02-23.32,0c-0.65,0-1.11,0.22-1.49,0.71c-1.47,1.86-1.75,4.02-1.68,6.33
			C545.97,521.59,555.81,521.59,565.73,521.59z M572.09,535.48c0-2.01,0.01-3.88,0-5.75c-0.02-2.88-2.16-5.4-5.02-5.81
			c-1.08-0.16-2.2-0.08-3.3-0.15c-0.52-0.03-0.79,0.17-1.04,0.6c-0.68,1.17-1.44,2.28-2.1,3.46c-1.15,2.06-2.87,3.01-5.23,2.91
			c-1.53-0.06-3.06-0.01-4.64-0.01c0.2,0.7,0.53,0.97,1.2,0.95c1.6-0.05,3.2-0.02,4.8-0.01c0.69,0,1.11,0.36,1.12,1.05
			c0.01,0.7-0.42,1.04-1.09,1.09c-0.33,0.02-0.66,0.01-0.99,0.01c-1.08,0-2.17,0-3.25,0c-0.04,0.08-0.09,0.16-0.13,0.24
			c0.25,0.31,0.51,0.87,0.76,0.87c1.54,0.02,3.04,0.41,4.54,0.48c4.51,0.19,9.04,0.07,13.56,0.07
			C571.5,535.48,571.74,535.48,572.09,535.48z M541.78,543.95c-7.33,0-14.46,0-21.73,0c0.92,1.48,1.75,2.88,2.65,4.22
			c0.6,0.88,1.53,1.24,2.58,1.24c3.75,0.01,7.5,0.06,11.25-0.04c0.78-0.02,1.8-0.37,2.27-0.93
			C539.91,547.1,540.75,545.54,541.78,543.95z M560.54,523.85c-6.47,0-12.78,0-19.2,0c0.64,1.06,1.25,2.01,1.8,2.98
			c0.25,0.43,0.55,0.54,1.04,0.62c1.2,0.21,2.38,0.57,3.57,0.87c0.29,0.07,0.57,0.22,0.86,0.22c2.54,0.02,5.08,0.06,7.61-0.03
			c0.62-0.02,1.42-0.36,1.8-0.82C558.94,526.53,559.67,525.2,560.54,523.85z M506.47,561.16c5.59,0,11.15,0,16.73,0
			c0-0.66,0-1.27,0-1.94c-0.36,0-0.66,0-0.96,0c-4.77,0-9.54,0-14.31,0c-1.71,0-1.71,0-1.55,1.73
			C506.38,560.99,506.41,561.04,506.47,561.16z M538.55,561.17c0.31,0.01,0.52,0.03,0.74,0.03c5.1,0,10.2-0.02,15.3,0.02
			c0.82,0.01,0.88-0.34,0.87-0.98c0-0.65-0.02-1.06-0.9-1.05c-5.07,0.05-10.15,0.02-15.22,0.02c-0.26,0-0.53,0.03-0.79,0.04
			C538.55,559.94,538.55,560.51,538.55,561.17z M530.91,558.69c-1.1,0-2.2,0-3.3,0c-2.22,0-2.19,0-2.21,2.19
			c-0.01,0.71,0.24,0.89,0.9,0.88c2.59-0.03,5.17-0.01,7.76-0.01c2.42,0,2.4,0,2.32-2.41c-0.02-0.5-0.18-0.67-0.68-0.66
			C534.1,558.71,532.5,558.69,530.91,558.69z M530.3,527.36c3.58,0,7.04,0,10.62,0c-0.71-1.15-1.34-2.21-2.01-3.25
			c-0.1-0.15-0.34-0.31-0.51-0.3c-1.26,0.02-2.55-0.06-3.79,0.15C532.64,524.29,531.21,525.45,530.3,527.36z M558.02,537.71
			c-0.22,1.53-0.22,1.53,1.24,1.53c4.22,0,8.43,0,12.65,0c0.32,0,0.64-0.03,0.98-0.04c0-0.54,0-0.99,0-1.49
			C567.93,537.71,563,537.71,558.02,537.71z M508.34,563.46c0,0.64,0.02,1.21-0.01,1.78c-0.02,0.56,0.24,0.82,0.78,0.82
			c2.26,0,4.52,0.02,6.77-0.03c0.25-0.01,0.68-0.34,0.71-0.57c0.1-0.64,0.03-1.3,0.03-2C513.86,563.46,511.17,563.46,508.34,563.46z
			 M545.14,563.46c0,0.68-0.08,1.3,0.03,1.88c0.05,0.27,0.45,0.68,0.7,0.69c2.28,0.05,4.57,0.05,6.85,0.01
			c0.25,0,0.66-0.35,0.7-0.59c0.1-0.63,0.03-1.29,0.03-1.98C550.65,563.46,547.96,563.46,545.14,563.46z M571.17,541.47
			c-2.48,0-4.85,0-7.27,0c0,0.55,0.01,1.02,0,1.48c-0.01,0.45,0.2,0.65,0.65,0.64c1.99-0.01,3.97-0.01,5.96,0
			c0.45,0,0.67-0.2,0.67-0.64C571.17,542.47,571.17,541.98,571.17,541.47z M553.91,541.17c0,1-0.13,1.9,0.05,2.74
			c0.1,0.45,0.68,0.95,1.16,1.13c0.5,0.2,1.14,0.03,1.72,0.05c0.53,0.01,0.75-0.26,0.76-0.75c0.01-0.8,0.01-1.6,0-2.39
			c0-0.5-0.27-0.76-0.77-0.77C555.9,541.17,554.97,541.17,553.91,541.17z M507.87,541.18c-0.76,0-1.43-0.07-2.07,0.03
			c-0.27,0.04-0.65,0.43-0.68,0.69c-0.09,0.82-0.05,1.65-0.02,2.47c0.01,0.2,0.11,0.55,0.21,0.56c0.56,0.09,1.19,0.25,1.68,0.07
			c0.39-0.15,0.77-0.73,0.84-1.17C507.96,543.01,507.87,542.14,507.87,541.18z M571.78,521.42c0,0.61,0.03,1.12-0.01,1.64
			c-0.04,0.61,0.01,1.31,0.61,1.47c0.71,0.19,1.51,0.08,2.26,0.05c0.08,0,0.2-0.31,0.21-0.47c0.02-0.71,0.04-1.43-0.01-2.14
			c-0.01-0.19-0.28-0.5-0.45-0.52C573.56,521.39,572.72,521.42,571.78,521.42z M530.04,521.41c-0.61,0-1.13,0.02-1.65-0.01
			c-0.51-0.02-0.68,0.22-0.67,0.7c0.02,0.63-0.01,1.27,0.01,1.9c0.01,0.18,0.07,0.5,0.15,0.52c0.48,0.07,1.01,0.2,1.44,0.06
			c0.3-0.1,0.63-0.56,0.68-0.9C530.12,522.98,530.04,522.26,530.04,521.41z M555.7,537.21c-0.77,0-1.45,0-2.19,0
			c0.09,0.61,0.18,1.16,0.27,1.75c0.66,0,1.27,0,1.92,0C555.7,538.36,555.7,537.82,555.7,537.21z"/>
		<path class="st1" d="M509.03,550.67c0.01-2.39,1.92-4.27,4.34-4.25c2.34,0.02,4.25,1.94,4.25,4.28c0.01,2.35-1.98,4.34-4.32,4.33
			C510.94,555.01,509.01,553.06,509.03,550.67z M513.35,552.81c1.15-0.01,2.1-0.96,2.1-2.1c0.01-1.17-0.97-2.13-2.17-2.12
			c-1.15,0.01-2.09,0.96-2.1,2.1C511.18,551.86,512.16,552.82,513.35,552.81z"/>
		<path class="st1" d="M552.76,550.67c0.01,2.4-1.9,4.34-4.27,4.35c-2.35,0.01-4.29-1.95-4.29-4.34c0-2.37,1.88-4.25,4.24-4.27
			C550.85,546.39,552.75,548.27,552.76,550.67z M550.59,550.7c0-1.17-0.92-2.1-2.09-2.11c-1.2-0.01-2.16,0.96-2.14,2.15
			c0.02,1.17,0.96,2.08,2.14,2.07C549.67,552.8,550.59,551.87,550.59,550.7z"/>
		<path class="st1" d="M530.88,554.96c-1.96,0-3.91,0-5.87,0c-0.25,0-0.5-0.01-0.74-0.03c-0.62-0.07-0.95-0.47-0.96-1.05
			c-0.01-0.54,0.31-0.93,0.88-1.04c0.21-0.04,0.43-0.06,0.65-0.06c3.99,0,7.99,0,11.98,0c0.27,0,0.55,0.02,0.82,0.07
			c0.56,0.12,0.86,0.5,0.84,1.06c-0.02,0.56-0.34,0.92-0.91,1c-0.27,0.04-0.55,0.04-0.82,0.04
			C534.79,554.96,532.83,554.96,530.88,554.96z"/>
		<path class="st1" d="M566.73,525.88c2.23-0.02,4.02,1.74,4.03,3.94c0.01,2.2-1.79,4.01-3.99,4.01c-2.19,0.01-3.99-1.8-3.98-4.01
			C562.8,527.65,564.55,525.9,566.73,525.88z M566.78,528.06c-1.02,0-1.83,0.82-1.81,1.83c0.02,0.96,0.84,1.78,1.8,1.78
			c0.98,0.01,1.83-0.86,1.81-1.85C568.57,528.84,567.77,528.06,566.78,528.06z"/>
	</g>
</g>
</svg>
