<?xml version="1.0" encoding="utf-8"?>
<!-- Generator: Adobe Illustrator 25.0.1, SVG Export Plug-In . SVG Version: 6.00 Build 0)  -->
<svg version="1.1" id="Layer_1" xmlns="http://www.w3.org/2000/svg" xmlns:xlink="http://www.w3.org/1999/xlink" x="0px" y="0px"
	 viewBox="0 0 1080 1080" style="enable-background:new 0 0 1080 1080;" xml:space="preserve">
<style type="text/css">
	.st0{fill:#C87EA7;}
	.st1{fill:#F2F2F2;}
</style>
<g>
	<g>
		<circle class="st0" cx="540" cy="540" r="63"/>
	</g>
	<path class="st1" d="M523.83,511.64c-0.03,0.01-0.05,0.03-0.08,0.05c-15.55,8.91-21,28.83-12.14,44.46
		c4.29,7.57,11.29,13.01,19.7,15.33c8.43,2.32,17.26,1.22,24.86-3.1c0.03-0.01,0.05-0.03,0.08-0.05c15.55-8.91,21-28.83,12.14-44.46
		c-4.29-7.57-11.29-13.01-19.7-15.33C540.26,506.21,531.43,507.31,523.83,511.64z M532.44,569.06l-0.71-0.17
		c-7.18-1.76-13.61-6.69-17.67-13.54c-4.14-7-5.28-15.11-3.21-22.81l0.2-0.73l0.75,0.07c8.39,0.81,15.64,5.52,19.87,12.93
		c4.17,7.29,4.57,16.11,1.08,23.59L532.44,569.06z M567.8,551.71c-2.34,5.88-6.76,10.96-12.46,14.3c-0.1,0.06-0.19,0.11-0.29,0.17
		c-5.77,3.31-12.5,4.62-18.98,3.71l-1.15-0.16l0.45-1.07c3.44-8.13,2.87-17.25-1.57-25.02c-4.45-7.79-12.06-12.94-20.87-14.12
		l-1.12-0.15l0.41-1.06c2.23-5.68,6.45-10.66,11.89-14.02c5.94-3.67,12.81-5.13,19.87-4.22l1.13,0.15l-0.42,1.06
		c-3.44,8.75-2.9,17.21,1.6,25.13c4.45,7.82,11.46,12.56,20.81,14.09l1.09,0.18L567.8,551.71z M569.13,547.55l-0.21,0.73l-0.76-0.09
		c-8.13-0.99-14.45-4.77-18.8-11.25c-5.22-7.79-5.96-16.32-2.17-25.37l0.3-0.72l0.76,0.21c7.65,2.12,14.04,7.14,17.99,14.15
		C570.13,532.09,571.18,540.23,569.13,547.55z"/>
</g>
</svg>
