<?xml version="1.0" encoding="utf-8"?>
<!-- Generator: Adobe Illustrator 25.0.1, SVG Export Plug-In . SVG Version: 6.00 Build 0)  -->
<svg version="1.1" id="Layer_1" xmlns="http://www.w3.org/2000/svg" xmlns:xlink="http://www.w3.org/1999/xlink" x="0px" y="0px"
	 viewBox="0 0 1080 1080" style="enable-background:new 0 0 1080 1080;" xml:space="preserve">
<style type="text/css">
	.st0{fill:#EA5329;}
	.st1{fill:#F2F2F2;}
</style>
<g>
	<g>
		<circle class="st0" cx="540" cy="540" r="63"/>
	</g>
	<g>
		<path class="st1" d="M573.82,533.21c0.08,2.14-0.35,4.06-1.92,5.62c-0.92,0.92-2.05,1.38-3.27,1.66
			c-5.77,1.3-11.54,2.61-17.32,3.86c-1.06,0.23-1.88,0.67-2.65,1.44c-7.37,7.43-14.78,14.81-22.18,22.21
			c-2.37,2.37-5.5,2.41-7.93,0.1c-0.87-0.83-1.71-1.68-2.55-2.53c-2.43-2.45-2.43-5.65,0.01-8.08c6.49-6.49,12.99-12.97,19.48-19.46
			c1.3-1.3,2.61-2.59,3.9-3.91c0.23-0.24,0.42-0.58,0.49-0.9c1.24-5.98,2.46-11.97,3.7-17.96c0.66-3.17,3.01-5.07,6.23-5.08
			c11.32-0.02,20.99,7.75,23.43,18.88C573.51,530.43,573.62,531.83,573.82,533.21z M549.08,541.31c0.85,1,0.85,1,1.96,0.74
			c1.27-0.29,2.55-0.58,3.82-0.86c4.53-1.02,9.07-2.04,13.6-3.07c1.8-0.41,2.91-1.77,2.94-3.61c0.1-4.94-1.28-9.42-4.29-13.34
			c-4.35-5.68-10.15-8.56-17.31-8.63c-2.18-0.02-3.53,1.15-3.97,3.26c-1.22,5.94-2.45,11.88-3.7,17.81
			c-0.13,0.6-0.02,1.03,0.58,1.31c0.09-0.19,0.19-0.38,0.27-0.58c0.98-2.28,1.96-4.56,2.94-6.84c0.1-0.22,0.19-0.46,0.33-0.65
			c0.37-0.46,0.85-0.63,1.41-0.4c0.52,0.21,0.8,0.8,0.65,1.38c-0.06,0.23-0.17,0.46-0.27,0.68c-1.12,2.58-2.23,5.17-3.37,7.73
			c-0.24,0.53-0.1,0.81,0.41,1.05c1.45-1.46,2.88-2.91,4.33-4.34c0.52-0.52,1.22-0.53,1.66-0.09c0.51,0.5,0.52,1.14-0.03,1.71
			c-0.86,0.89-1.75,1.77-2.63,2.64c-0.58,0.57-1.17,1.14-1.72,1.67c0.32,0.68,0.71,0.65,1.23,0.42c2.61-1.16,5.24-2.29,7.86-3.42
			c0.85-0.37,1.49-0.17,1.79,0.52c0.27,0.62-0.06,1.28-0.84,1.63c-0.91,0.4-1.83,0.79-2.75,1.19
			C552.38,539.89,550.76,540.59,549.08,541.31z M529.98,546.64c-0.13,0.18-0.24,0.38-0.39,0.54c-3.27,3.28-6.55,6.55-9.83,9.83
			c-0.85,0.85-1.71,1.68-2.51,2.57c-1.23,1.37-0.89,3.48,0.63,4.45c1.42-1.39,2.82-2.77,4.24-4.14c0.59-0.57,1.3-0.6,1.77-0.13
			c0.49,0.5,0.46,1.17-0.13,1.77c-0.91,0.94-1.84,1.86-2.77,2.78c-0.48,0.48-0.97,0.94-1.45,1.4c1.69,2.18,3.63,2.31,5.47,0.46
			c3.93-3.94,7.86-7.88,11.79-11.82c0.16-0.16,0.32-0.34,0.42-0.46C534.82,551.48,532.47,549.13,529.98,546.64z M531.96,545
			c2.35,2.35,4.72,4.72,7.08,7.08c2.87-2.87,5.78-5.78,8.65-8.65c-2.37-2.37-4.74-4.74-7.08-7.08
			C537.74,539.23,534.83,542.13,531.96,545z"/>
		<path class="st1" d="M554.57,530.57c0.01,0.57-0.54,1.15-1.12,1.17c-0.6,0.02-1.21-0.56-1.2-1.16c0.01-0.6,0.55-1.13,1.16-1.13
			C554.01,529.45,554.56,529.97,554.57,530.57z"/>
		<path class="st1" d="M526.08,558.72c-0.64-0.01-1.17-0.59-1.14-1.22c0.03-0.61,0.57-1.12,1.18-1.11c0.64,0.01,1.17,0.58,1.14,1.21
			C527.23,558.21,526.68,558.73,526.08,558.72z"/>
	</g>
</g>
</svg>
