<?xml version="1.0" encoding="utf-8"?>
<!-- Generator: Adobe Illustrator 25.0.1, SVG Export Plug-In . SVG Version: 6.00 Build 0)  -->
<svg version="1.1" id="Layer_1" xmlns="http://www.w3.org/2000/svg" xmlns:xlink="http://www.w3.org/1999/xlink" x="0px" y="0px"
	 viewBox="0 0 1080 1080" style="enable-background:new 0 0 1080 1080;" xml:space="preserve">
<style type="text/css">
	.st0{fill:#65C5B4;}
	.st1{fill:#FFFFFF;}
</style>
<g>
	<g>
		<circle class="st0" cx="540" cy="540" r="63"/>
	</g>
	<g>
		<path class="st1" d="M551.97,520.99c0.39,0,0.65,0,0.9,0c3.22,0,6.44-0.01,9.66,0c2.05,0.01,4,0.42,5.73,1.58
			c2.37,1.6,3.36,3.94,3.53,6.71c0.02,0.4,0.03,0.8,0.03,1.21c0,9.21,0,18.41,0,27.62c0,1.64-0.14,3.27-0.9,4.77
			c-1.36,2.68-3.64,4.09-6.55,4.53c-0.6,0.09-1.22,0.12-1.84,0.12c-15.18,0.01-30.35,0.03-45.53-0.02c-3.45-0.01-6.24-1.42-7.91-4.6
			c-0.73-1.4-0.91-2.93-0.91-4.48c-0.01-9.44-0.01-18.89,0-28.33c0-2.65,0.67-5.06,2.74-6.9c1.71-1.51,3.77-2.16,6-2.2
			c3.41-0.05,6.82-0.01,10.23-0.01c0.25,0,0.51,0,0.85,0c0-1.54-0.01-3,0-4.46c0.01-1.41,0.47-2.65,1.72-3.38
			c0.65-0.38,1.46-0.65,2.2-0.65c5.4-0.06,10.8-0.05,16.19-0.03c2.28,0.01,3.86,1.78,3.87,3.65
			C551.98,517.71,551.97,519.29,551.97,520.99z M539.99,523.65c-7.39,0-14.77,0-22.16,0c-0.45,0-0.9,0-1.35,0.02
			c-2.73,0.14-4.8,1.71-5.41,4.21c-0.2,0.82-0.25,1.69-0.25,2.53c-0.02,9.26-0.01,18.51-0.01,27.77c0,0.47,0.01,0.95,0.06,1.42
			c0.2,1.98,1.06,3.58,2.87,4.53c1.24,0.65,2.62,0.79,4,0.79c14.85,0,29.69,0,44.54,0c0.5,0,1-0.03,1.49-0.08
			c1.98-0.23,3.65-0.99,4.66-2.82c0.69-1.24,0.77-2.61,0.77-4c-0.01-9.16,0-18.32-0.01-27.48c0-0.54-0.02-1.09-0.06-1.63
			c-0.2-2.44-1.69-4.31-4.03-4.93c-0.88-0.23-1.82-0.31-2.73-0.32C554.91,523.64,547.45,523.65,539.99,523.65z M549.38,520.97
			c0-1.58,0.01-3.09,0-4.6c-0.01-0.91-0.43-1.36-1.35-1.36c-5.35-0.01-10.7-0.01-16.05,0c-0.89,0-1.33,0.46-1.35,1.37
			c-0.02,1.42-0.01,2.84,0,4.26c0,0.11,0.05,0.22,0.08,0.33C536.92,520.97,543.09,520.97,549.38,520.97z"/>
		<path class="st1" d="M534.2,538.08c0-1.71,0-3.29,0-4.87c0-1.71,0.7-2.41,2.42-2.41c2.3,0,4.59,0,6.89,0
			c1.51,0,2.29,0.76,2.29,2.26c0.01,1.66,0,3.31,0,5.07c0.7,0,1.35,0,2,0c1.09,0,2.18-0.01,3.27,0c1.23,0.02,2.01,0.77,2.02,2
			c0.02,2.53,0.02,5.07,0,7.6c-0.01,1.12-0.81,1.93-1.92,1.94c-1.75,0.03-3.5,0.01-5.32,0.01c-0.01,0.3-0.04,0.55-0.04,0.8
			c0,1.47,0.01,2.94-0.01,4.4c-0.02,1.29-0.73,2.06-2.02,2.08c-2.53,0.03-5.07,0.03-7.6,0c-1.24-0.02-1.95-0.77-1.98-2.04
			c-0.03-1.47-0.01-2.93-0.01-4.4c0-0.25,0-0.51,0-0.84c-0.85,0-1.63,0-2.4,0c-0.99,0-1.99,0.02-2.98-0.01
			c-1.07-0.03-1.87-0.77-1.89-1.82c-0.03-2.65-0.03-5.3,0-7.95c0.01-1.05,0.89-1.78,2.08-1.81c1.44-0.03,2.89-0.01,4.33-0.01
			C533.6,538.08,533.85,538.08,534.2,538.08z M550.46,540.71c-0.33,0-0.59,0-0.85,0c-1.61,0-3.22,0.01-4.83,0
			c-1.11-0.01-1.6-0.5-1.63-1.6c-0.01-0.28,0-0.57,0-0.85c0-1.58,0-3.16,0-4.76c-2.14,0-4.21,0-6.34,0c0,0.3,0,0.56,0,0.82
			c0,1.59,0.01,3.17,0,4.76c-0.01,1.26-0.42,1.66-1.66,1.67c-1.28,0.01-2.56,0-3.83,0c-0.58,0-1.17,0-1.74,0c0,2.16,0,4.23,0,6.34
			c1.85,0,3.65,0,5.44,0c1.42,0,1.79,0.37,1.8,1.82c0,1.56,0,3.12,0,4.69c0,0.25,0.03,0.5,0.04,0.73c2.15,0,4.23,0,6.35,0
			c0-1.92-0.01-3.79,0-5.66c0.01-1.15,0.45-1.57,1.61-1.58c1.37-0.01,2.75,0,4.12,0c0.51,0,1.02,0,1.53,0
			C550.46,544.91,550.46,542.86,550.46,540.71z"/>
	</g>
</g>
</svg>
