<?xml version="1.0" encoding="utf-8"?>
<!-- Generator: Adobe Illustrator 25.0.1, SVG Export Plug-In . SVG Version: 6.00 Build 0)  -->
<svg version="1.1" id="Layer_1" xmlns="http://www.w3.org/2000/svg" xmlns:xlink="http://www.w3.org/1999/xlink" x="0px" y="0px"
	 viewBox="0 0 1080 1080" style="enable-background:new 0 0 1080 1080;" xml:space="preserve">
<style type="text/css">
	.st0{fill:#FFCE34;}
	.st1{fill:#4D4D4D;}
</style>
<g>
	<g>
		<circle class="st0" cx="540" cy="540" r="63"/>
	</g>
	<g>
		<path class="st1" d="M561.26,551.11c-1.69-2.61-3.37-5.23-5.05-7.85c-3.56-5.57-8.61-8.6-15.01-9c-6.7-0.42-12.2,2.02-15.92,7.05
			c-3.72,5.04-6.9,10.21-10.66,16.45c-1.78,2.95-1.91,6.43-0.38,10.04c2.48,5.84,9.15,8.51,15.19,6.08
			c3.69-1.48,7.19-2.21,10.67-2.21c0.49,0,0.98,0.01,1.47,0.04c3.44,0.2,6.6,1.24,9.24,2.22c0.94,0.35,1.94,0.55,3,0.77
			c0.44,0.09,0.88,0.18,1.32,0.28c3.29-0.29,6.32-1.58,8.13-3.47c4.1-4.3,4.65-10.07,1.44-15.08
			C563.55,554.67,562.41,552.89,561.26,551.11z M563.21,566.66c-1.21,2.76-3.67,4.7-6.6,5.2c-0.49,0.08-0.98,0.12-1.47,0.12
			c-1.25,0-2.52-0.27-3.83-0.82c-7.46-3.1-15.06-3.11-22.59-0.01c-2.77,1.14-5.74,1.04-8.14-0.27c-2.31-1.26-3.86-3.46-4.36-6.2
			c-0.4-2.18-0.04-4.17,1.07-5.92c0.76-1.2,1.52-2.41,2.27-3.61c2.39-3.81,4.87-7.76,7.47-11.52c2.96-4.28,7.34-6.5,13-6.59h0.04
			c5.86,0.12,10.47,2.69,13.7,7.62c1.57,2.4,3.1,4.82,4.64,7.24c1.33,2.1,2.66,4.19,4.01,6.28
			C564.13,560.81,564.42,563.9,563.21,566.66z"/>
		<path class="st1" d="M539.93,528.46c3.23-2.44,4.95-5.94,5.1-10.4c-0.05-3.74-1.05-6.67-3.16-9.22c-1.83-2.21-4.33-3.57-7.06-3.8
			c-0.29-0.03-0.57-0.04-0.85-0.04c-2.38,0-4.69,0.87-6.59,2.49c-2.73,2.33-4.36,5.91-4.48,9.83c-0.12,3.92,1.29,7.61,3.87,10.11
			C530.57,531.12,535.86,531.53,539.93,528.46z M528.93,509.86c2.76-2.68,6.99-2.76,9.84-0.17c2.35,2.13,3.43,4.94,3.41,8.85l0,0.02
			c-0.06,2.32-1.03,4.67-2.66,6.46c-1.56,1.71-3.54,2.64-5.61,2.64c-0.08,0-0.16,0-0.24,0c-2.16-0.08-4.18-1.16-5.67-3.05
			C524.58,520.3,525,513.69,528.93,509.86z"/>
		<path class="st1" d="M562.15,533.35c4.36-2.23,6.61-5.96,6.88-11.41c0.04-1.78-0.37-3.51-1.23-5.29c-1.6-3.29-4.79-5.2-8.19-5.2
			c-1.21,0-2.44,0.24-3.64,0.75c-3.05,1.28-5.48,3.95-6.66,7.32c-1.19,3.38-0.97,6.99,0.6,9.92
			C552.35,533.98,557.62,535.67,562.15,533.35z M551.34,523.66c0.29-4.23,2.19-7.19,5.65-8.79c3.11-1.44,6.64-0.17,8.22,2.96
			c1.11,2.21,1.27,4.93,0.44,7.45c-0.81,2.43-2.46,4.41-4.55,5.45c-1.05,0.52-2.14,0.78-3.19,0.78c-0.83,0-1.65-0.16-2.41-0.49
			c-1.75-0.74-3.06-2.25-3.69-4.25c-0.16-0.5-0.27-0.96-0.34-1.39c-0.05-0.31-0.07-0.63-0.09-1.02l-0.04-0.63L551.34,523.66z"/>
		<path class="st1" d="M521.22,536.4c1.91-4.98-0.01-10.98-4.46-13.95c-3.42-2.28-7.68-2.1-10.62,0.46
			c-2.18,1.89-3.18,4.39-3.25,8.1c0.29,4.29,2.37,7.68,6.01,9.79c2.26,1.31,4.81,1.57,7.17,0.73
			C518.41,540.7,520.29,538.83,521.22,536.4z M513.31,539.13c-0.01,0-0.01,0-0.02,0c-2.95,0-5.87-2.28-6.96-5.43
			c-1.04-3.01-0.77-5.53,0.81-7.72c1.48-2.04,4.07-2.82,6.46-1.93c2.21,0.82,4.01,2.67,4.93,5.05c0.91,2.34,0.82,4.87-0.23,6.92
			C517.24,538.06,515.52,539.13,513.31,539.13z"/>
		<path class="st1" d="M579.64,534.09c-1.81-1.36-4.03-1.9-6.45-1.55c-5.46,0.79-9.67,5.67-9.77,11.35
			c-0.05,2.68,0.87,5.06,2.6,6.71c1.73,1.65,4.14,2.47,6.81,2.29c2.75-0.18,5.48-1.69,7.5-4.16c2.11-2.58,3.09-5.73,2.7-8.65
			C582.69,537.62,581.49,535.49,579.64,534.09z M577.97,547.17c-1.65,1.88-3.82,2.96-5.96,2.96c-0.02,0-0.04,0-0.06,0
			c-3.28-0.03-5.75-2.6-5.75-5.97c0-3.83,2.53-7.33,6.17-8.53c1.87-0.62,3.71-0.46,5.16,0.44c1.45,0.91,2.41,2.48,2.68,4.43
			C580.52,542.72,579.68,545.22,577.97,547.17z"/>
	</g>
</g>
</svg>
