<svg width="127" height="127" xmlns="http://www.w3.org/2000/svg" version="1.1" xml:space="preserve">
 <g>
  <title>Layer 1</title>
  <g id="svg_1">
   <g id="svg_2">
    <circle class="st0" cx="64" cy="64" r="63" fill="#51195D" id="svg_3"/>
   </g>
   <g id="svg_4">
    <path class="st1" d="m61.06,32.99c-6.81,0 -13.57,0 -20.44,0c0,0.33 0,0.63 0,0.94c0,16.64 0,33.28 0,49.93c0,0.29 0.01,0.6 -0.05,0.88c-0.11,0.52 -0.45,0.82 -1,0.77c-0.5,-0.04 -0.8,-0.34 -0.85,-0.85c-0.02,-0.24 -0.02,-0.49 -0.02,-0.74c0,-17.11 0,-34.22 0,-51.33c0,-1.38 0.2,-1.58 1.57,-1.58c15.82,0 31.65,0 47.47,0c1.31,0 1.55,0.24 1.55,1.54c0,0.79 0.01,1.57 -0.01,2.36c-0.02,0.78 -0.34,1.15 -0.94,1.15c-0.64,0.01 -0.93,-0.31 -0.96,-1.12c-0.02,-0.63 0,-1.27 0,-1.95c-6.86,0 -13.64,0 -20.47,0c0,19.08 0,38.14 0,57.29c0.33,0 0.61,0 0.9,0c4.02,0 8.05,0 12.07,0c1.05,0 1.54,0.31 1.54,0.96c0,0.68 -0.52,1.01 -1.59,1.01c-12.05,0 -24.09,0 -36.14,0c-0.31,0 -0.62,0 -0.98,0c0,0.95 0,1.83 0,2.76c14.15,0 28.32,0 42.54,0c0,-0.89 0,-1.78 0,-2.7c-0.3,-0.04 -0.59,-0.06 -0.86,-0.13c-0.5,-0.13 -0.83,-0.45 -0.78,-1.01c0.05,-0.55 0.4,-0.85 0.93,-0.87c0.9,-0.03 1.81,-0.01 2.83,-0.01c0,-0.42 0,-0.75 0,-1.08c0,-16.37 0,-32.74 0,-49.12c0,-0.34 0.01,-0.69 0.05,-1.03c0.06,-0.48 0.37,-0.73 0.85,-0.75c0.51,-0.02 0.86,0.21 0.96,0.72c0.06,0.31 0.06,0.63 0.06,0.95c0,16.81 0,33.63 0,50.44c0,1.6 -0.12,1.72 -1.76,1.82c-0.07,0 -0.14,0.03 -0.3,0.07c0,1.03 0,2.08 0,3.13c0,1.27 -0.26,1.53 -1.49,1.53c-14.5,0 -29,0 -43.5,0c-1.26,0 -1.48,-0.22 -1.48,-1.52c0,-1.05 0,-2.1 0,-3.1c-0.1,-0.06 -0.12,-0.08 -0.14,-0.08c-1.92,-0.23 -1.92,-0.23 -1.92,-2.17c0,-0.47 -0.01,-0.93 0.01,-1.4c0.03,-0.54 0.3,-0.87 0.86,-0.9c0.6,-0.04 0.94,0.29 1.01,0.84c0.06,0.5 0.01,1.02 0.01,1.57c6.88,0 13.65,0 20.47,0c0,-19.05 0,-38.09 0,-57.22zm3.85,57.25c0,-19.11 0,-38.16 0,-57.25c-0.64,0 -1.24,0 -1.85,0c0,19.1 0,38.15 0,57.25c0.61,0 1.19,0 1.85,0z" fill="#F2F2F2" id="svg_5"/>
    <path class="st1" d="m42.55,59.59c0,-4.93 0,-9.86 0,-14.8c0,-1.22 0.25,-1.49 1.45,-1.49c4.56,0 9.12,0 13.68,0c1.2,0 1.48,0.29 1.48,1.48c0,9.86 0,19.73 0,29.59c0,1.24 -0.29,1.53 -1.51,1.53c-4.54,0 -9.07,0 -13.61,0c-1.26,0 -1.49,-0.24 -1.49,-1.52c0,-4.93 0,-9.86 0,-14.79zm1.96,-14.32c0,9.58 0,19.11 0,28.68c4.25,0 8.45,0 12.69,0c0,-9.57 0,-19.11 0,-28.68c-4.24,0 -8.45,0 -12.69,0z" fill="#F2F2F2" id="svg_6"/>
    <path class="st1" d="m76.14,62.82c0,-1.95 0.02,-3.81 -0.02,-5.67c0,-0.21 -0.29,-0.45 -0.51,-0.6c-0.96,-0.67 -1.52,-1.56 -1.37,-2.74c0.16,-1.2 0.8,-2.08 2.01,-2.48c1.32,-0.44 2.69,0.12 3.43,1.43c0.64,1.13 0.38,2.8 -0.73,3.49c-0.8,0.5 -0.94,1.08 -0.9,1.91c0.06,1.52 0.02,3.04 0.02,4.66c0.31,0 0.56,0 0.82,0c1.74,0 3.48,0 5.22,0c0.99,0 1.31,0.3 1.31,1.25c0.01,3.53 0.01,7.07 0,10.6c0,0.91 -0.32,1.23 -1.26,1.23c-4.68,0.01 -9.37,0.01 -14.05,0c-0.94,0 -1.26,-0.3 -1.27,-1.23c-0.01,-3.53 -0.01,-7.07 0,-10.6c0,-0.96 0.33,-1.25 1.31,-1.25c1.96,0 3.92,0 5.99,0zm7.3,11.12c0,-3.08 0,-6.1 0,-9.14c-4.24,0 -8.42,0 -12.64,0c0,3.06 0,6.09 0,9.15c0.5,0 0.96,0 1.49,0c0,-0.86 0,-1.69 0,-2.51c0.01,-1 0.32,-1.32 1.32,-1.32c2.33,-0.01 4.66,-0.01 6.98,0c1.06,0 1.32,0.28 1.34,1.38c0.01,0.8 0,1.61 0,2.45c0.54,-0.01 1,-0.01 1.51,-0.01zm-9.21,-0.01c1.95,0 3.84,0 5.74,0c0,-0.63 0,-1.21 0,-1.8c-1.94,0 -3.83,0 -5.74,0c0,0.62 0,1.18 0,1.8zm2.93,-18.9c0.51,-0.04 0.84,-0.33 0.87,-0.92c0.03,-0.55 -0.41,-1.03 -0.94,-0.99c-0.57,0.04 -0.88,0.41 -0.93,0.96c-0.03,0.48 0.45,0.94 1,0.95z" fill="#F2F2F2" id="svg_7"/>
   </g>
  </g>
 </g>

</svg>