<?xml version="1.0" encoding="utf-8"?>
<!-- Generator: Adobe Illustrator 25.0.1, SVG Export Plug-In . SVG Version: 6.00 Build 0)  -->
<svg version="1.1" id="Layer_1" xmlns="http://www.w3.org/2000/svg" xmlns:xlink="http://www.w3.org/1999/xlink" x="0px" y="0px"
	 viewBox="0 0 1080 1080" style="enable-background:new 0 0 1080 1080;" xml:space="preserve">
<style type="text/css">
	.st0{fill:#00AE9A;}
	.st1{fill:#FFFFFF;}
</style>
<g>
	<g>
		<circle class="st0" cx="540" cy="540" r="63"/>
	</g>
	<g>
		<path class="st1" d="M565.35,570.84c2.09,0,4.06,0,6.02,0c0.27,0,0.55,0,0.8,0.06c0.57,0.14,0.89,0.54,0.85,1.12
			c-0.04,0.59-0.42,0.92-0.99,1.01c-0.19,0.03-0.39,0.02-0.59,0.02c-20.97,0-41.95,0-62.92,0c-0.22,0-0.45,0.02-0.66-0.03
			c-0.53-0.12-0.96-0.47-0.88-1.01c0.06-0.39,0.4-0.78,0.72-1.06c0.18-0.16,0.56-0.12,0.85-0.12c2.85-0.01,5.7,0,8.56,0
			c0.26,0,0.53,0,0.87,0c0-0.39,0-0.71,0-1.02c0-20.34,0-40.67,0-61.01c0-0.29-0.01-0.59,0.02-0.88c0.05-0.57,0.4-0.88,0.95-0.96
			c0.22-0.03,0.44-0.02,0.66-0.02c9.17,0,18.34,0,27.51,0c1.4,0,1.7,0.29,1.7,1.68c0,7.92,0,15.84,0,23.75c0,0.29,0,0.59,0,1
			c0.32,0,0.6,0,0.88,0c4.65,0,9.29,0,13.94,0c1.39,0,1.7,0.31,1.7,1.69c0,11.58,0,23.16,0,34.75
			C565.35,570.13,565.35,570.44,565.35,570.84z M534.51,570.82c0-0.38,0-0.7,0-1.01c0-11.61,0-23.22,0-34.82c0-1.3,0.3-1.6,1.62-1.6
			c3.22,0,6.44,0,9.66,0c0.26,0,0.52-0.02,0.78-0.04c0-8.09,0-16.1,0-24.14c-8.8,0-17.57,0-26.36,0c0,20.55,0,41.07,0,61.6
			c1.1,0,2.15,0,3.26,0c0-0.3,0-0.57,0-0.83c0-2.98-0.02-5.95,0.01-8.93c0.01-1.89,1.19-3.18,3.03-3.36
			c0.66-0.06,1.33-0.05,1.99-0.05c2.53,0.01,3.8,1.29,3.8,3.83c0,2.85,0,5.71,0,8.56c0,0.26,0,0.52,0,0.79
			C533.07,570.82,533.73,570.82,534.51,570.82z M563.07,570.8c0-11.71,0-23.42,0-35.16c-8.79,0-17.55,0-26.35,0
			c0,11.74,0,23.43,0,35.16C545.52,570.8,554.26,570.8,563.07,570.8z M530.07,570.82c0-3.33,0.01-6.59-0.01-9.85
			c0-0.69-0.43-1.08-1.13-1.1c-0.59-0.02-1.18-0.02-1.77-0.01c-1.19,0.01-1.48,0.31-1.49,1.48c0,2.94,0,5.89,0,8.83
			c0,0.21,0.03,0.42,0.04,0.65C527.18,570.82,528.57,570.82,530.07,570.82z"/>
		<path class="st1" d="M534.51,526.76c0-1.06-0.01-2.11,0-3.17c0.01-0.8,0.35-1.2,1.16-1.21c2.16-0.03,4.32-0.02,6.48,0
			c0.68,0.01,1.13,0.4,1.13,1.1c0.02,2.19,0.04,4.37,0,6.56c-0.01,0.78-0.45,1.13-1.24,1.13c-2.09,0.01-4.18,0.01-6.26,0
			c-0.91,0-1.27-0.38-1.27-1.32C534.5,528.82,534.51,527.79,534.51,526.76z M536.73,524.62c0,1.47,0,2.87,0,4.29
			c1.46,0,2.87,0,4.31,0c0-1.45,0-2.85,0-4.29C539.59,524.62,538.2,524.62,536.73,524.62z"/>
		<path class="st1" d="M534.51,515.76c0-1.06-0.01-2.11,0-3.17c0.01-0.83,0.37-1.23,1.21-1.24c2.11-0.02,4.22-0.02,6.34,0
			c0.82,0.01,1.23,0.39,1.25,1.23c0.03,2.11,0.03,4.23,0,6.34c-0.01,0.88-0.42,1.23-1.31,1.23c-2.06,0.01-4.13,0.01-6.19,0
			c-0.94,0-1.29-0.36-1.29-1.29C534.5,517.82,534.51,516.79,534.51,515.76z M541.04,517.94c0-1.46,0-2.89,0-4.33
			c-1.47,0-2.88,0-4.32,0c0,1.46,0,2.87,0,4.33C538.17,517.94,539.58,517.94,541.04,517.94z"/>
		<path class="st1" d="M527.82,531.17c-1.01,0-2.02,0.01-3.02,0c-0.92-0.01-1.32-0.39-1.33-1.28c-0.01-2.09-0.01-4.18,0-6.27
			c0-0.82,0.4-1.24,1.21-1.25c2.14-0.02,4.28-0.02,6.41,0c0.76,0.01,1.18,0.44,1.19,1.21c0.02,2.14,0.02,4.28,0,6.41
			c-0.01,0.77-0.44,1.15-1.22,1.17C529.98,531.18,528.9,531.17,527.82,531.17z M525.73,524.62c0,1.47,0,2.88,0,4.29
			c1.46,0,2.87,0,4.29,0c0-1.45,0-2.85,0-4.29C528.57,524.62,527.18,524.62,525.73,524.62z"/>
		<path class="st1" d="M523.47,537.76c0-1.03-0.01-2.07,0-3.1c0.01-0.86,0.42-1.28,1.26-1.28c2.09-0.01,4.18-0.01,6.27,0
			c0.85,0,1.28,0.42,1.29,1.27c0.02,2.09,0.02,4.18,0,6.27c-0.01,0.85-0.43,1.28-1.28,1.29c-2.09,0.02-4.18,0.02-6.27,0
			c-0.88-0.01-1.27-0.44-1.28-1.35C523.46,539.83,523.47,538.8,523.47,537.76z M530.03,539.98c0-1.48,0-2.89,0-4.34
			c-1.45,0-2.86,0-4.3,0c0,1.46,0,2.89,0,4.34C527.18,539.98,528.57,539.98,530.03,539.98z"/>
		<path class="st1" d="M527.89,520.15c-1.06,0-2.11,0.01-3.17,0c-0.86-0.01-1.25-0.41-1.25-1.28c-0.01-2.09-0.01-4.18,0-6.27
			c0-0.82,0.4-1.24,1.22-1.25c2.11-0.02,4.23-0.02,6.34,0c0.82,0.01,1.25,0.42,1.26,1.22c0.02,2.14,0.02,4.28,0,6.41
			c-0.01,0.76-0.45,1.15-1.23,1.17C530,520.17,528.95,520.15,527.89,520.15z M530.05,513.61c-1.48,0-2.89,0-4.31,0
			c0,1.47,0,2.9,0,4.32c1.47,0,2.88,0,4.31,0C530.05,516.47,530.05,515.08,530.05,513.61z"/>
		<path class="st1" d="M527.9,553.21c-1.06,0-2.11,0.01-3.17,0c-0.86-0.01-1.26-0.41-1.26-1.27c-0.01-2.09-0.01-4.18,0-6.27
			c0-0.82,0.4-1.25,1.21-1.26c2.14-0.02,4.28-0.02,6.41,0c0.76,0.01,1.19,0.43,1.2,1.2c0.02,2.14,0.02,4.28,0,6.41
			c-0.01,0.77-0.45,1.17-1.22,1.18C530.01,553.22,528.96,553.21,527.9,553.21z M525.72,546.64c0,1.5,0,2.91,0,4.35
			c1.45,0,2.86,0,4.3,0c0-1.47,0-2.9,0-4.35C528.56,546.64,527.17,546.64,525.72,546.64z"/>
		<path class="st1" d="M555.48,548.83c1.03,0,2.06-0.01,3.1,0c0.79,0.01,1.22,0.35,1.23,1.14c0.04,2.16,0.03,4.32,0,6.48
			c-0.01,0.79-0.42,1.16-1.23,1.17c-2.11,0.02-4.23,0.02-6.34,0c-0.88-0.01-1.22-0.4-1.22-1.3c-0.01-2.06-0.01-4.13,0-6.19
			c0-0.93,0.36-1.29,1.28-1.3C553.37,548.82,554.43,548.83,555.48,548.83z M557.59,551.11c-1.5,0-2.92,0-4.34,0
			c0,1.45,0,2.84,0,4.24c1.47,0,2.9,0,4.34,0C557.59,553.91,557.59,552.54,557.59,551.11z"/>
		<path class="st1" d="M551.03,564.21c0-1.06-0.01-2.11,0-3.17c0.01-0.8,0.38-1.18,1.17-1.19c2.14-0.01,4.27-0.01,6.41,0
			c0.76,0,1.17,0.35,1.19,1.11c0.04,2.18,0.04,4.37,0.01,6.56c-0.01,0.75-0.43,1.12-1.19,1.12c-2.14,0.02-4.27,0.02-6.41,0
			c-0.82-0.01-1.17-0.42-1.18-1.27C551.02,566.32,551.03,565.26,551.03,564.21z M557.57,566.4c0-1.49,0-2.9,0-4.34
			c-1.46,0-2.87,0-4.3,0c0,1.47,0,2.9,0,4.34C554.72,566.4,556.11,566.4,557.57,566.4z"/>
		<path class="st1" d="M544.42,548.83c1.06,0,2.11-0.01,3.17,0c0.78,0.01,1.21,0.39,1.22,1.17c0.03,2.14,0.02,4.28,0,6.41
			c-0.01,0.77-0.43,1.2-1.19,1.21c-2.14,0.03-4.28,0.02-6.41,0c-0.82-0.01-1.21-0.44-1.21-1.25c-0.01-2.09-0.01-4.18,0-6.27
			c0-0.89,0.41-1.27,1.33-1.28C542.35,548.82,543.39,548.83,544.42,548.83z M546.56,551.1c-1.47,0-2.89,0-4.32,0
			c0,1.45,0,2.84,0,4.24c1.46,0,2.88,0,4.32,0C546.56,553.89,546.56,552.51,546.56,551.1z"/>
		<path class="st1" d="M555.44,537.78c1.01,0,2.02-0.01,3.02,0c0.92,0.01,1.35,0.37,1.37,1.27c0.03,2.09,0.03,4.18,0,6.27
			c-0.01,0.94-0.44,1.29-1.41,1.3c-2.01,0.01-4.03,0.01-6.04,0c-0.96,0-1.34-0.38-1.34-1.34c-0.01-2.06-0.01-4.13,0-6.19
			c0-0.9,0.39-1.29,1.31-1.3C553.37,537.77,554.4,537.78,555.44,537.78z M557.56,544.36c0-1.46,0-2.89,0-4.31c-1.47,0-2.88,0-4.31,0
			c0,1.45,0,2.86,0,4.31C554.71,544.36,556.11,544.36,557.56,544.36z"/>
		<path class="st1" d="M539.99,542.14c0-1.03-0.01-2.07,0-3.1c0.01-0.81,0.42-1.25,1.22-1.25c2.11-0.02,4.23-0.02,6.34,0
			c0.81,0.01,1.25,0.43,1.26,1.23c0.02,2.11,0.02,4.23,0,6.34c-0.01,0.84-0.45,1.25-1.31,1.25c-2.06,0.01-4.13,0.01-6.19,0
			c-0.91,0-1.31-0.4-1.32-1.3C539.98,544.26,539.99,543.2,539.99,542.14z M546.56,540.05c-1.46,0-2.89,0-4.31,0c0,1.46,0,2.87,0,4.3
			c1.46,0,2.86,0,4.31,0C546.56,542.9,546.56,541.49,546.56,540.05z"/>
		<path class="st1" d="M539.99,564.2c0-1.01-0.01-2.02,0-3.02c0.01-0.92,0.38-1.32,1.28-1.33c2.09-0.01,4.18-0.01,6.27,0
			c0.85,0,1.28,0.41,1.28,1.26c0.02,2.09,0.02,4.18,0,6.27c-0.01,0.85-0.43,1.26-1.29,1.27c-2.09,0.02-4.18,0.02-6.27,0
			c-0.89-0.01-1.26-0.43-1.27-1.35C539.98,566.26,539.99,565.23,539.99,564.2z M542.24,566.37c1.47,0,2.89,0,4.3,0
			c0-1.48,0-2.89,0-4.3c-1.47,0-2.88,0-4.3,0C542.24,563.53,542.24,564.95,542.24,566.37z"/>
	</g>
</g>
</svg>
