<?xml version="1.0" encoding="utf-8"?>
<!-- Generator: Adobe Illustrator 25.0.1, SVG Export Plug-In . SVG Version: 6.00 Build 0)  -->
<svg version="1.1" id="Layer_1" xmlns="http://www.w3.org/2000/svg" xmlns:xlink="http://www.w3.org/1999/xlink" x="0px" y="0px"
	 viewBox="0 0 1080 1080" style="enable-background:new 0 0 1080 1080;" xml:space="preserve">
<style type="text/css">
	.st0{fill:#00746D;}
	.st1{fill:#FFFFFF;}
</style>
<g>
	<g>
		<circle class="st0" cx="540" cy="540" r="63"/>
	</g>
	<g>
		<path class="st1" d="M540.87,568.76c0,0.59,0.01,1.08,0,1.57c-0.03,1.15-0.92,1.7-1.94,1.16c-1.4-0.74-2.78-1.5-4.15-2.28
			c-0.37-0.21-0.66-0.2-1.03,0.01c-1.33,0.76-2.68,1.49-4.02,2.22c-1.14,0.62-2.02,0.1-2.06-1.2c-0.01-0.47,0-0.93,0-1.47
			c-0.32,0-0.57,0-0.82,0c-2.71,0-5.42,0.01-8.13,0c-3.47-0.01-5.72-2.26-5.7-5.72c0.05-16.27,0.14-32.54,0.16-48.81
			c0.01-3.62,2.51-5.95,5.98-5.94c14.83,0.05,29.66,0.02,44.49,0.02c2.33,0,3.36,1.03,3.36,3.37c0,17.92,0,35.84,0,53.76
			c0,1.08-0.19,2.05-1.13,2.76c-0.63,0.47-1.32,0.56-2.07,0.56c-7.33-0.01-14.67,0-22,0C541.53,568.76,541.25,568.76,540.87,568.76z
			 M522.98,558.12c0.31,0,0.57,0,0.82,0c3.58,0,7.17,0,10.75,0c4.13,0,8.25-0.01,12.38,0.01c0.38,0,0.81,0.09,1.13,0.28
			c0.47,0.29,0.56,0.82,0.4,1.32c-0.2,0.61-0.71,0.86-1.32,0.86c-1.79,0.01-3.58,0-5.37,0.01c-0.27,0-0.55,0.02-0.83,0.04
			c0,1.92,0,3.77,0,5.66c0.23,0,0.42,0,0.6,0c7.38,0,14.76,0,22.13,0c0.14,0,0.31,0.04,0.42-0.02c0.16-0.09,0.39-0.25,0.4-0.38
			c0.03-1.76,0.02-3.52,0.02-5.3c-2.39,0-4.7,0.01-7,0c-0.97-0.01-1.54-0.51-1.51-1.29c0.02-0.77,0.55-1.18,1.52-1.19
			c2,0,4.01,0,6.01,0c0.99,0,0.99,0,0.99-0.96c0-15.13,0-30.27,0-45.4c0-0.95,0-0.96-0.93-0.96c-13.27,0-26.54,0-39.81,0
			c-0.25,0-0.5,0.03-0.77,0.04C522.98,526.62,522.98,542.31,522.98,558.12z M520.41,558.12c0-15.81,0-31.54,0-47.32
			c-0.53,0-1-0.01-1.47,0c-2.17,0.03-3.29,1.17-3.3,3.35c-0.05,14.64-0.09,29.29-0.14,43.93c0,0.24,0.02,0.49,0.04,0.84
			C517.1,557.92,518.76,558.15,520.41,558.12z M527.63,560.7c-0.1-0.04-0.16-0.08-0.22-0.08c-3.13,0-6.26-0.01-9.39,0.03
			c-0.88,0.01-1.56,0.52-2.03,1.24c-0.6,0.89-0.65,1.87-0.18,2.82c0.52,1.07,1.43,1.59,2.62,1.6c2.94,0.01,5.89,0,8.83,0
			c0.13,0,0.26-0.05,0.38-0.07C527.63,564.36,527.63,562.53,527.63,560.7z M530.16,568.31c0.2-0.09,0.38-0.16,0.56-0.25
			c0.9-0.47,1.8-0.92,2.68-1.43c0.62-0.36,1.16-0.37,1.78,0c1.03,0.6,2.09,1.14,3.19,1.73c0-2.63,0-5.15,0-7.7c-2.75,0-5.46,0-8.2,0
			C530.16,563.19,530.16,565.71,530.16,568.31z"/>
		<path class="st1" d="M553.48,559.33c0.01,0.65-0.53,1.22-1.18,1.24c-0.68,0.03-1.28-0.55-1.27-1.23c0.01-0.64,0.58-1.21,1.22-1.22
			C552.88,558.12,553.46,558.68,553.48,559.33z"/>
	</g>
</g>
</svg>
