<?xml version="1.0" encoding="utf-8"?>
<!-- Generator: Adobe Illustrator 25.0.1, SVG Export Plug-In . SVG Version: 6.00 Build 0)  -->
<svg version="1.1" id="Layer_1" xmlns="http://www.w3.org/2000/svg" xmlns:xlink="http://www.w3.org/1999/xlink" x="0px" y="0px"
	 viewBox="0 0 1080 1080" style="enable-background:new 0 0 1080 1080;" xml:space="preserve">
<style type="text/css">
	.st0{fill:#EF3D55;}
	.st1{fill:#F2F2F2;}
</style>
<g>
	<g>
		<circle class="st0" cx="540" cy="540" r="63"/>
	</g>
	<path class="st1" d="M575.29,522.68c-0.02,1.89-0.66,3.25-1.83,4.41c-4.27,4.22-8.53,8.46-12.8,12.69
		c-8.4,8.33-16.79,16.67-25.2,24.98c-0.42,0.42-1.01,0.76-1.59,0.93c-6.3,1.83-12.6,3.63-18.91,5.43c-0.13,0.04-0.27,0.07-0.41,0.11
		c-1.21,0.3-2.11-0.58-1.77-1.78c0.99-3.58,2.01-7.16,3.03-10.74c0.82-2.89,1.63-5.78,2.48-8.65c0.14-0.47,0.4-0.96,0.74-1.31
		c12.58-12.74,25.17-25.47,37.77-38.19c2.43-2.45,6.07-2.44,8.5-0.02c2.85,2.85,5.68,5.71,8.51,8.58
		C574.85,520.16,575.25,521.48,575.29,522.68z M528.71,553.22c9.12-9.16,18.17-18.25,27.18-27.3c-1.65-1.64-3.38-3.36-5.14-5.12
		c-9.11,9.18-18.26,18.4-27.54,27.75c0.76,0,1.34,0.03,1.91-0.01c0.88-0.05,1.45,0.33,1.82,1.12
		C527.49,550.83,528.09,551.98,528.71,553.22z M535.46,560.8c9.35-9.28,18.58-18.44,27.71-27.51c-1.78-1.78-3.5-3.5-5.09-5.1
		c-9.03,8.99-18.12,18.04-27.25,27.13c1.2,0.6,2.4,1.22,3.6,1.8c0.71,0.34,1.05,0.87,1.03,1.66
		C535.45,559.38,535.46,559.99,535.46,560.8z M552.83,518.51c4.26,4.26,8.4,8.4,12.56,12.56c0,0,0.07-0.03,0.12-0.07
		c2.02-1.99,4.06-3.97,6.05-6c1.22-1.24,1.17-2.94-0.07-4.18c-2.72-2.74-5.46-5.47-8.2-8.2c-1.4-1.39-3.11-1.38-4.5,0.01
		c-1.05,1.05-2.09,2.12-3.15,3.17C554.71,516.73,553.74,517.64,552.83,518.51z M522.76,551.41c-0.42,0-0.84,0.03-1.26-0.01
		c-0.48-0.04-0.69,0.12-0.82,0.6c-0.51,1.93-1.08,3.85-1.59,5.78c-0.06,0.21,0.01,0.56,0.16,0.72c2.07,2.11,4.16,4.2,6.27,6.27
		c0.14,0.14,0.46,0.21,0.66,0.16c2-0.54,3.99-1.1,5.97-1.69c0.19-0.06,0.42-0.36,0.43-0.55c0.05-0.91,0-1.82,0.03-2.72
		c0.02-0.44-0.16-0.65-0.55-0.84c-1.38-0.67-2.76-1.35-4.1-2.09c-0.4-0.22-0.76-0.61-0.99-1c-0.56-0.97-1.11-1.95-1.51-2.99
		C524.95,551.76,524.24,550.99,522.76,551.41z M522.49,566.02c-1.52-1.51-3.03-3.01-4.52-4.49c-0.57,2.01-1.17,4.09-1.79,6.29
		C518.38,567.19,520.47,566.6,522.49,566.02z"/>
</g>
</svg>
